<?xml version="1.0" standalone="no"?>
<!DOCTYPE svg PUBLIC "-//W3C//DTD SVG 20010904//EN"
 "http://www.w3.org/TR/2001/REC-SVG-20010904/DTD/svg10.dtd">
<svg version="1.0" xmlns="http://www.w3.org/2000/svg"
 width="556.000000pt" height="556.000000pt" viewBox="0 0 556.000000 556.000000"
 preserveAspectRatio="xMidYMid meet">
<metadata>
Created by potrace 1.14, written by Peter Selinger 2001-2017
</metadata>
<g transform="translate(0.000000,556.000000) scale(0.100000,-0.100000)"
fill="#000000" stroke="none">
<path d="M2571 4645 c-1 -6 4 -16 11 -23 9 -9 9 -12 1 -12 -7 0 -14 4 -18 10
-9 15 -35 0 -35 -21 0 -12 -5 -16 -14 -13 -9 3 -12 13 -9 22 4 9 3 14 -1 10
-4 -3 -8 -12 -10 -20 -1 -7 -5 -19 -9 -25 -5 -7 -6 -17 -2 -22 3 -5 1 -12 -3
-15 -5 -3 -9 6 -8 21 0 14 -5 27 -12 29 -7 1 -8 0 -3 -2 12 -6 3 -34 -11 -34
-5 0 -7 4 -4 8 3 5 -1 9 -9 9 -13 0 -13 -3 0 -17 13 -15 13 -17 0 -17 -8 0
-15 4 -15 9 0 4 -5 8 -11 8 -5 0 -7 -4 -4 -10 11 -18 -5 -31 -26 -20 -14 8
-19 8 -17 -1 2 -6 -3 -14 -10 -16 -8 -3 -10 1 -5 13 6 16 5 17 -9 4 -17 -16
-13 -44 5 -33 6 4 7 1 2 -7 -6 -10 -13 -8 -28 11 -17 21 -19 21 -14 4 4 -11 2
-27 -4 -35 -9 -13 -10 -13 -6 2 4 11 0 15 -11 13 -9 -1 -23 3 -31 9 -12 9 -12
8 -3 -11 13 -23 -1 -43 -14 -22 -5 8 -3 9 7 4 8 -5 11 -4 6 0 -4 5 -17 9 -29
10 -17 2 -18 0 -6 -9 16 -12 20 -46 5 -46 -5 0 -6 7 -3 16 3 8 2 13 -3 9 -5
-3 -12 1 -15 7 -4 7 -4 3 -2 -9 2 -13 0 -23 -5 -23 -9 0 -13 16 -9 35 1 5 -2
6 -7 2 -4 -5 -8 -13 -8 -17 0 -5 -9 -16 -20 -25 -11 -9 -15 -14 -8 -11 6 4 14
2 17 -3 4 -5 -2 -8 -11 -6 -10 1 -17 10 -16 20 1 13 -2 14 -10 6 -9 -9 -8 -17
2 -34 13 -20 13 -21 -2 -9 -10 8 -17 9 -21 3 -4 -6 -14 -7 -24 -4 -14 6 -15 4
-5 -8 11 -13 9 -15 -8 -14 -11 1 -25 8 -30 16 -7 10 -8 7 -3 -11 6 -22 5 -23
-9 -12 -13 11 -15 10 -10 -6 2 -11 0 -23 -6 -26 -6 -4 -9 -1 -5 7 3 8 1 18 -5
22 -6 3 -11 -1 -11 -9 0 -9 -5 -16 -11 -16 -5 0 -7 6 -3 13 4 6 -1 5 -12 -4
-10 -9 -25 -15 -32 -13 -7 1 -8 0 -2 -3 5 -2 10 -12 9 -21 0 -11 -2 -12 -6 -4
-2 6 -9 12 -14 12 -6 0 -8 -4 -4 -9 3 -5 0 -13 -6 -17 -7 -4 -9 -3 -5 4 3 6 2
13 -4 17 -5 3 -10 -1 -10 -9 0 -9 -8 -16 -17 -15 -11 0 -13 3 -5 6 6 2 12 12
12 21 0 13 -2 12 -14 -3 -8 -11 -12 -23 -9 -27 2 -5 -3 -11 -11 -14 -9 -3 -14
-10 -11 -14 3 -5 1 -11 -4 -14 -11 -7 -9 13 3 32 4 7 5 16 2 19 -3 3 -8 -2
-12 -11 -3 -9 -10 -13 -15 -10 -5 3 -6 -3 -2 -12 5 -13 3 -15 -7 -9 -10 6 -12
4 -7 -8 4 -12 2 -14 -10 -10 -10 4 -14 2 -9 -5 3 -6 2 -14 -4 -17 -6 -4 -9 -1
-8 6 2 6 -3 14 -11 17 -8 2 -11 0 -8 -5 3 -5 2 -15 -3 -23 -7 -12 -11 -12 -26
1 -15 13 -16 12 -11 -11 4 -14 4 -20 1 -13 -3 7 -13 9 -22 6 -15 -6 -15 -5 -3
10 12 15 12 17 -3 11 -9 -3 -16 -15 -16 -25 0 -10 -5 -19 -11 -19 -5 0 -7 5
-3 12 4 7 3 8 -4 4 -7 -4 -12 -2 -12 4 0 7 -7 5 -16 -4 -8 -9 -20 -16 -25 -16
-5 0 -9 -5 -9 -10 0 -6 11 -3 25 6 14 9 25 12 25 8 0 -5 -9 -15 -21 -22 -17
-11 -23 -11 -37 0 -12 10 -14 10 -8 1 9 -16 -6 -17 -21 -2 -8 8 -13 8 -18 0
-3 -6 -3 -10 2 -9 4 2 9 -1 10 -7 1 -5 -8 -9 -20 -8 -12 1 -16 -1 -9 -3 15 -7
16 -31 0 -40 -8 -5 -9 -2 -5 9 5 14 1 16 -23 12 -19 -3 -30 -1 -30 7 0 6 -3 9
-6 5 -3 -3 1 -16 10 -29 14 -20 21 -18 17 5 -1 5 3 6 9 2 18 -11 -8 -34 -30
-28 -11 3 -18 9 -15 12 2 4 -2 8 -9 8 -8 0 -11 -9 -8 -24 3 -14 0 -23 -8 -23
-7 0 -10 7 -7 15 4 8 1 17 -5 21 -7 5 -8 2 -3 -6 6 -10 4 -12 -10 -6 -14 5
-16 4 -6 -8 9 -11 8 -15 -6 -20 -15 -6 -15 -8 -3 -16 21 -14 3 -12 -23 2 -21
10 -21 10 -7 -7 14 -17 14 -18 -8 -6 -16 9 -22 18 -17 29 5 13 3 14 -5 6 -9
-9 -9 -17 -1 -32 8 -14 8 -23 1 -27 -6 -4 -9 -3 -8 2 2 4 0 8 -4 8 -4 0 -15 9
-24 20 -14 17 -14 16 1 -9 9 -16 12 -25 6 -22 -6 4 -11 3 -11 -2 0 -5 -10 -12
-22 -15 -21 -5 -21 -5 -6 7 22 16 23 23 4 23 -8 0 -15 -3 -14 -6 2 -19 -4 -22
-19 -10 -16 13 -17 12 -4 -4 12 -15 12 -19 -5 -31 -10 -8 -23 -11 -29 -8 -16
10 -45 9 -52 -1 -3 -6 -1 -7 5 -3 7 4 12 2 12 -5 0 -8 5 -7 17 2 15 13 15 12
2 -9 -8 -12 -15 -18 -17 -12 -2 5 -10 10 -18 10 -9 0 -13 -4 -10 -9 6 -10 -23
-26 -39 -21 -26 7 -76 7 -80 0 -3 -5 6 -7 21 -4 19 3 24 1 18 -8 -6 -10 -5
-10 8 0 9 7 19 9 22 4 9 -15 -3 -20 -37 -16 -21 3 -27 2 -19 -4 11 -7 11 -10
-2 -15 -9 -4 -16 -2 -16 3 0 6 -5 10 -10 10 -7 0 -7 -6 -1 -18 7 -14 6 -19 -4
-19 -8 0 -12 4 -10 8 3 3 -4 9 -15 12 -17 4 -18 2 -8 -16 6 -12 7 -19 3 -14
-5 4 -16 0 -25 -8 -16 -14 -19 -14 -34 0 -9 9 -16 12 -16 5 0 -6 -5 -8 -12 -4
-7 4 -8 3 -4 -5 4 -6 11 -9 16 -6 5 3 12 1 15 -5 4 -6 2 -9 -4 -8 -5 2 -17 -6
-26 -17 -16 -20 -16 -20 -6 2 8 16 7 22 -4 26 -8 4 -12 1 -9 -7 3 -7 -5 -21
-17 -32 -13 -10 -19 -14 -16 -8 7 12 -40 30 -51 19 -3 -3 2 -5 10 -5 9 0 19
-8 22 -17 4 -10 4 -14 0 -10 -4 4 -14 1 -23 -6 -14 -11 -15 -10 -1 8 14 18 13
19 -1 8 -9 -7 -19 -9 -24 -5 -4 4 -2 -3 4 -16 9 -17 9 -22 -1 -20 -6 2 -13 -3
-14 -9 -1 -7 -3 -16 -4 -20 -1 -5 -2 -12 0 -18 1 -5 -4 -4 -12 3 -11 11 -10
14 2 22 8 5 11 10 6 10 -5 0 -3 6 3 14 9 11 9 16 -1 22 -7 4 -10 4 -6 -1 4 -4
1 -17 -7 -29 -19 -26 -19 -31 2 -52 17 -17 17 -17 -7 -11 -21 5 -22 4 -9 -6
10 -8 15 -23 12 -42 -1 -16 -3 -38 -4 -48 0 -10 -5 -15 -11 -11 -7 4 -8 2 -4
-5 10 -15 27 -4 24 16 -2 9 4 18 12 20 9 3 11 1 5 -4 -15 -12 -18 -56 -3 -47
7 4 8 3 4 -4 -4 -6 -13 -9 -20 -6 -8 3 -17 0 -21 -6 -3 -6 -3 -10 2 -9 26 4
34 -1 21 -15 -7 -8 -17 -11 -22 -8 -5 3 -6 0 -2 -7 6 -9 11 -9 22 0 9 8 14 8
14 1 0 -6 -8 -16 -17 -21 -10 -6 -13 -11 -7 -11 7 0 14 -9 17 -20 3 -11 1 -18
-4 -14 -5 3 -9 0 -9 -5 0 -6 5 -11 10 -11 6 0 10 -8 10 -17 0 -15 -2 -16 -10
-3 -8 13 -11 13 -22 1 -10 -10 -10 -12 0 -7 17 10 15 -4 -5 -28 -18 -21 -18
-21 3 -3 27 23 34 22 29 -5 -3 -12 1 -28 8 -37 9 -12 9 -13 0 -7 -8 4 -13 2
-13 -4 0 -6 -6 -8 -12 -5 -7 4 -4 -1 6 -9 11 -9 15 -16 9 -16 -6 0 -14 -7 -17
-16 -5 -14 -4 -15 8 -5 11 10 14 7 12 -13 0 -13 -4 -22 -8 -19 -5 2 -8 0 -8
-6 0 -5 6 -12 13 -15 6 -4 1 -4 -13 -2 -23 5 -24 4 -7 -9 13 -9 17 -20 12 -36
-5 -16 -4 -19 6 -14 9 6 11 4 6 -7 -3 -9 0 -22 6 -29 7 -7 1 -5 -12 6 l-24 20
13 -25 c7 -14 14 -27 14 -30 1 -3 5 -4 9 -2 5 1 6 -2 2 -7 -3 -6 -12 -8 -19
-5 -8 3 -17 0 -21 -6 -3 -6 -3 -10 2 -9 26 4 34 -1 21 -15 -7 -8 -17 -11 -22
-8 -5 3 -6 0 -2 -7 6 -9 11 -9 22 0 9 8 14 8 14 1 0 -6 -8 -16 -17 -21 -10 -6
-13 -11 -7 -11 7 0 14 -9 17 -20 3 -11 1 -18 -4 -14 -5 3 -9 0 -9 -5 0 -6 5
-11 11 -11 7 0 8 -7 4 -17 -12 -31 -13 -48 -1 -55 7 -5 3 -8 -9 -9 l-20 0 20
-9 c12 -5 14 -9 6 -9 -11 -1 -10 -5 5 -15 14 -11 16 -18 8 -26 -9 -9 -14 -9
-19 1 -5 8 -4 10 3 5 7 -4 12 -2 12 3 0 16 -16 13 -31 -6 -12 -14 -12 -16 0
-8 11 6 13 4 8 -8 -4 -10 -2 -14 6 -11 8 3 13 -4 13 -15 0 -16 -3 -18 -15 -8
-12 10 -13 9 -2 -11 7 -13 17 -20 24 -16 7 4 8 3 4 -2 -12 -12 -30 -12 -40 1
-5 6 -7 4 -4 -5 2 -8 10 -15 17 -15 7 0 15 -6 18 -13 2 -7 -2 -10 -11 -6 -8 3
-18 0 -23 -7 -4 -8 -3 -10 4 -5 7 4 12 3 12 -3 0 -5 -5 -13 -10 -16 -8 -5 -7
-11 1 -21 10 -12 8 -17 -5 -27 -16 -12 -16 -13 3 -13 11 0 18 4 15 7 -2 4 1
11 6 14 7 5 5 11 -5 19 -16 11 -15 13 1 27 16 12 17 12 11 -3 -3 -10 -2 -20 4
-23 5 -4 6 -12 2 -18 -11 -18 -12 -36 -2 -43 5 -3 7 -10 3 -15 -3 -5 -10 -7
-15 -3 -5 3 -6 11 -2 17 4 7 0 6 -10 -2 -19 -15 -23 -26 -5 -15 7 5 9 2 5 -9
-4 -12 -1 -15 11 -11 14 5 13 3 -2 -10 -19 -15 -11 -22 18 -17 5 1 4 -5 -3
-13 -7 -8 -9 -21 -5 -27 4 -8 3 -9 -4 -5 -7 4 -12 2 -12 -3 0 -6 6 -11 13 -11
8 0 7 -4 -3 -10 -8 -5 -10 -10 -4 -10 13 0 12 -73 -1 -104 -6 -13 -5 -17 2
-13 13 8 11 -19 -2 -30 -4 -5 -4 -1 0 7 8 13 7 13 -8 1 -18 -14 -22 -22 -10
-20 5 1 15 1 23 -1 11 -1 9 -4 -5 -10 -17 -7 -17 -9 -2 -9 20 -1 22 -12 5 -29
-9 -9 -9 -12 0 -12 7 0 12 -5 12 -11 0 -6 -7 -8 -16 -5 -14 5 -15 4 -5 -7 9
-11 8 -17 -4 -27 -8 -7 -15 -18 -15 -24 0 -6 5 -3 11 7 5 9 14 17 19 17 9 0 8
-19 -3 -37 -4 -6 -1 -14 5 -17 7 -4 3 -4 -9 -2 -13 2 -25 1 -27 -3 -3 -4 5 -8
16 -8 28 -2 33 -10 19 -27 -8 -10 -9 -15 -1 -18 6 -2 8 -11 4 -21 -5 -14 -9
-15 -20 -6 -18 15 -18 2 0 -16 10 -11 16 -11 27 -2 11 10 11 9 0 -5 -7 -10
-10 -18 -6 -18 4 0 2 -6 -4 -14 -9 -11 -9 -15 1 -20 7 -3 3 -4 -9 -2 -13 2
-25 1 -27 -3 -3 -4 5 -8 16 -8 28 -3 33 -10 18 -28 -8 -10 -9 -15 -1 -15 6 0
11 -4 11 -10 0 -5 -3 -9 -7 -9 -20 3 -33 -2 -33 -12 0 -8 6 -7 16 2 15 12 16
11 9 -10 -4 -13 -3 -21 2 -18 5 3 9 -5 9 -18 0 -13 -4 -21 -8 -19 -4 3 -8 -2
-8 -11 0 -9 4 -14 9 -10 14 8 5 -34 -11 -53 -12 -14 -10 -14 11 -3 19 11 22
11 15 -1 -14 -22 -16 -61 -3 -52 8 4 9 3 5 -5 -4 -6 -10 -9 -14 -7 -4 2 -8 -7
-9 -21 -1 -18 2 -22 10 -14 6 6 15 11 20 11 5 0 1 -8 -9 -17 -17 -17 -17 -18
1 -22 13 -2 14 -5 6 -11 -9 -5 -8 -9 4 -13 9 -4 13 -3 10 2 -3 5 -1 12 5 16 5
3 10 -3 10 -14 0 -11 3 -22 8 -25 11 -7 43 20 34 30 -4 4 1 2 10 -5 18 -13 15
-36 -3 -26 -5 4 -9 1 -9 -5 0 -7 7 -9 15 -6 46 19 51 19 31 4 -15 -12 -16 -17
-6 -23 9 -5 11 -4 6 3 -4 7 -4 12 -1 12 9 0 35 -27 30 -32 -2 -2 5 -4 16 -5
19 -2 19 -1 -2 16 -17 14 -19 18 -6 18 9 0 14 -4 11 -9 -3 -4 -2 -8 3 -9 24
-2 46 -8 51 -15 4 -4 -1 -4 -10 -1 -12 4 -18 1 -18 -7 0 -9 10 -13 30 -12 20
1 30 -3 30 -12 0 -7 -5 -10 -12 -6 -7 5 -8 3 -3 -6 6 -10 11 -9 22 5 10 15 13
16 13 4 0 -9 11 -21 25 -27 20 -9 26 -8 35 6 10 15 10 14 5 -4 -7 -28 14 -44
51 -39 16 2 23 2 16 -1 -18 -8 -14 -24 5 -17 9 4 14 2 10 -3 -3 -5 3 -10 14
-10 18 0 19 2 4 12 -14 11 -14 12 2 18 10 4 14 4 10 0 -3 -4 2 -19 13 -34 11
-15 17 -30 13 -34 -3 -3 -4 -6 -1 -6 3 0 12 8 19 17 12 15 12 16 -1 8 -13 -8
-13 -7 -1 8 18 22 20 22 17 -8 -2 -13 1 -22 6 -19 14 9 58 -17 51 -30 -3 -6
-3 -8 2 -4 4 4 15 2 24 -5 12 -9 11 -5 -3 18 -19 30 -19 30 1 13 15 -14 22
-15 32 -5 11 10 11 8 1 -11 -11 -22 -10 -23 11 -12 20 11 21 10 15 -6 -6 -18
-5 -18 7 -2 8 10 16 15 19 13 10 -11 48 -14 53 -5 3 5 -4 7 -16 5 -12 -2 -19
-1 -15 2 11 12 46 13 46 2 0 -5 5 -7 10 -4 8 5 7 11 0 20 -10 12 -8 13 10 10
16 -3 20 0 16 10 -3 9 0 12 8 9 8 -3 17 0 21 6 5 8 11 7 23 -2 14 -12 14 -10
3 10 -12 22 -11 23 9 12 11 -6 17 -16 14 -22 -5 -7 -2 -8 5 -3 9 5 9 11 3 17
-6 6 -8 17 -5 24 4 12 8 12 22 2 14 -12 15 -11 2 4 -13 17 -8 23 14 18 6 -1 5
4 -2 11 -12 12 -6 42 7 34 4 -2 7 7 6 22 -1 18 5 27 17 29 11 1 17 -2 14 -10
-3 -7 4 -13 16 -14 18 -1 19 1 7 9 -10 7 -11 9 -2 7 8 -2 14 -8 14 -13 0 -6 4
-17 9 -26 5 -10 3 -21 -4 -29 -10 -10 -8 -12 7 -6 16 6 17 4 6 -9 -19 -22 3
-44 25 -25 13 11 14 10 9 -4 -3 -9 -14 -16 -23 -16 -14 -1 -14 -2 2 -11 9 -6
15 -14 12 -20 -4 -5 -1 -9 4 -9 6 0 11 -4 11 -10 0 -5 -8 -7 -18 -3 -11 4 -10
0 6 -11 12 -10 26 -15 31 -12 4 3 8 -4 7 -17 -1 -17 4 -21 19 -19 12 2 16 0 9
-5 -24 -17 -11 -49 19 -44 4 0 7 -4 7 -9 0 -6 -10 -9 -22 -7 -13 2 -17 2 -10
0 7 -3 10 -8 8 -12 -3 -4 0 -13 6 -21 8 -12 9 -12 4 3 -3 11 -2 16 4 12 6 -3
10 -13 10 -21 0 -8 5 -12 10 -9 6 3 10 -1 10 -10 0 -9 -4 -13 -10 -10 -15 9
-12 -4 5 -21 8 -9 15 -12 15 -7 0 5 9 9 20 9 11 0 20 -4 20 -8 0 -4 -6 -8 -13
-8 -8 0 -14 -7 -14 -15 0 -8 5 -11 11 -7 20 12 35 10 29 -4 -3 -8 0 -14 6 -14
6 0 11 -9 11 -20 0 -12 7 -20 18 -20 14 0 15 2 2 10 -13 8 -12 10 3 10 20 0
22 -11 6 -27 -8 -8 -6 -15 9 -24 17 -11 19 -16 9 -29 -10 -13 -10 -13 4 -3 12
10 18 10 29 0 9 -8 11 -8 6 0 -4 7 0 10 10 9 9 -1 21 -11 26 -22 9 -18 9 -18
-6 0 -17 21 -22 11 -7 -13 8 -13 12 -13 28 -1 10 8 15 11 11 6 -10 -12 23 -45
38 -39 17 6 18 -13 2 -21 -7 -3 -2 -3 11 0 15 4 21 2 17 -4 -7 -11 12 -10 49
3 l20 8 -20 -17 -20 -16 20 7 c17 6 18 4 8 -8 -10 -13 -8 -15 15 -15 17 1 26
-4 24 -12 -1 -8 2 -11 8 -7 7 4 7 12 0 26 -6 10 -8 19 -6 19 11 0 33 -55 29
-70 -4 -12 -3 -12 5 -1 7 9 12 10 16 2 5 -8 13 -8 28 0 18 10 20 9 15 -5 -3
-8 -1 -18 5 -22 6 -4 8 -3 5 3 -8 12 12 22 31 16 6 -3 12 -11 12 -18 0 -8 5
-17 12 -21 6 -4 8 -3 5 2 -3 5 3 10 14 10 12 0 15 -4 9 -10 -6 -6 -10 -15 -10
-21 0 -6 3 -7 8 0 4 6 15 16 25 24 16 12 18 12 15 0 -2 -8 3 -13 10 -11 8 1
11 -2 7 -8 -5 -8 -11 -7 -21 1 -8 7 -14 7 -14 1 0 -13 29 -24 43 -15 6 4 8 0
4 -9 -8 -21 3 -30 20 -17 10 9 13 8 13 -2 0 -11 2 -11 10 1 8 13 10 12 10 -4
0 -14 3 -16 14 -7 10 8 19 5 40 -14 14 -13 26 -22 26 -20 0 3 11 0 25 -5 16
-6 27 -6 31 2 5 7 2 8 -7 3 -12 -7 -12 -5 -1 6 11 12 14 12 23 -1 8 -12 10 -9
6 12 -2 15 -1 27 2 26 3 0 8 1 11 2 19 7 56 5 62 -4 5 -6 8 -1 8 13 0 16 4 21
15 17 10 -3 15 1 15 12 0 14 2 14 9 3 7 -11 10 -9 16 8 3 11 11 21 17 21 6 0
6 -6 -2 -15 -7 -9 -10 -18 -6 -22 3 -3 6 -1 6 5 0 7 6 12 14 12 7 0 19 7 26
15 7 8 17 12 24 8 6 -4 4 2 -4 12 -15 19 -14 19 11 3 28 -18 52 -8 43 17 -3 7
0 16 7 21 8 5 10 3 5 -7 -4 -8 -1 -6 7 4 15 18 15 18 20 0 4 -16 5 -16 6 0 0
9 6 17 12 17 5 0 7 6 3 12 -6 11 -4 11 7 0 20 -18 34 -15 18 5 -8 10 -9 14 -2
10 6 -4 15 -3 18 3 5 8 11 7 21 -1 11 -9 15 -8 20 5 3 9 10 16 16 16 5 0 6 -4
3 -10 -13 -21 7 -9 37 23 17 17 27 26 23 18 -5 -9 -4 -12 3 -7 7 4 12 2 12 -5
0 -7 3 -10 6 -7 3 4 0 16 -6 28 -11 21 -11 21 15 4 14 -9 25 -13 24 -8 -4 22
2 48 9 39 9 -13 58 -13 69 -1 4 5 2 6 -4 2 -7 -4 -13 -2 -13 3 0 6 5 11 10 11
18 0 25 2 43 15 10 7 28 11 40 9 22 -5 22 -4 0 5 -27 12 -30 20 -5 17 25 -4
54 16 39 27 -12 9 1 6 41 -10 15 -6 16 -5 2 12 -14 17 -13 18 2 12 10 -3 20
-2 23 3 3 4 -1 10 -7 13 -7 3 8 4 34 3 26 -2 45 1 42 6 -3 4 0 16 5 25 6 11
11 13 11 5 0 -7 5 -10 10 -7 6 4 8 10 6 14 -3 4 1 8 9 8 8 0 11 -5 8 -11 -4
-6 0 -5 9 1 8 7 19 9 23 5 5 -4 5 1 2 10 -3 10 -2 20 4 23 5 4 6 12 3 18 -4 7
-3 8 1 4 13 -11 15 -38 3 -31 -7 4 -8 2 -4 -5 9 -14 26 -5 26 14 0 8 5 17 12
21 7 4 8 3 4 -4 -4 -7 -2 -12 3 -12 6 0 11 5 11 11 0 5 5 7 12 3 7 -5 9 -2 6
8 -4 8 -1 15 5 16 7 1 28 3 47 5 20 2 34 8 33 15 -2 7 2 12 8 12 5 0 8 4 4 9
-3 5 -1 12 4 15 5 4 13 1 17 -5 5 -8 3 -9 -6 -4 -9 5 -11 4 -6 -4 6 -9 11 -9
22 0 7 6 11 15 8 20 -3 5 2 6 10 3 9 -3 13 -11 9 -17 -3 -6 -1 -7 6 -3 7 5 9
16 5 29 -6 20 -5 20 15 -3 l21 -25 -10 29 c-9 24 -8 27 3 18 16 -13 53 -8 50
7 -2 6 4 11 13 11 9 0 13 5 9 12 -4 7 0 5 9 -6 14 -18 15 -17 22 9 4 18 10 23
17 16 14 -14 50 6 43 25 -3 9 -1 12 4 9 6 -3 10 -1 10 4 0 6 5 11 11 11 5 0 7
-5 3 -12 -5 -7 -3 -8 6 -3 10 6 12 3 7 -11 -7 -18 -6 -18 8 1 8 11 20 27 27
35 7 8 12 18 11 21 -1 4 14 3 33 -1 28 -7 33 -6 24 5 -8 10 -8 15 1 21 8 4 9
3 5 -4 -4 -7 -2 -12 3 -12 6 0 14 -1 18 -2 3 -2 7 5 9 15 1 9 -3 17 -9 17 -5
0 -8 2 -5 5 9 10 38 -7 31 -18 -3 -6 -1 -7 6 -3 8 5 9 12 2 20 -7 8 -4 12 10
13 12 1 17 -3 13 -9 -5 -7 -2 -8 5 -4 7 5 10 14 7 22 -3 8 0 11 9 7 8 -3 12
-10 8 -16 -3 -6 -1 -7 6 -3 9 6 9 11 1 21 -8 10 -6 13 7 11 10 0 17 4 16 11
-2 7 4 10 13 6 13 -5 13 -7 2 -14 -11 -7 -11 -9 0 -9 8 0 16 9 19 20 3 11 9
17 14 14 5 -3 7 -9 5 -13 -3 -4 1 -8 9 -8 11 0 12 5 3 21 -6 12 -7 18 -3 14 5
-4 14 -3 21 3 8 6 21 9 29 5 10 -3 15 1 16 12 0 10 3 12 6 4 2 -6 9 -10 13 -7
5 3 7 12 4 19 -3 7 3 19 13 27 16 12 17 12 6 -2 -10 -13 -10 -16 1 -16 9 0 13
11 12 34 -1 19 4 39 11 45 8 6 11 22 8 40 -3 16 -2 27 3 24 5 -3 7 6 4 19 -2
14 -8 23 -12 20 -10 -6 -8 15 3 33 5 7 3 12 -3 12 -6 0 -9 4 -5 10 3 5 11 8
18 6 7 -1 9 -1 4 1 -4 3 -4 9 -1 15 4 5 -4 4 -17 -3 -22 -11 -23 -11 -9 5 26
32 20 53 -13 47 -5 -1 -6 3 -2 9 4 6 16 8 28 4 22 -6 22 -6 2 9 -11 8 -24 13
-29 10 -5 -4 -6 -1 -2 6 4 6 12 9 17 6 5 -4 9 -1 9 4 0 6 -5 11 -12 11 -6 0
-3 7 8 16 18 14 18 15 -6 9 -22 -6 -21 -4 8 15 37 25 39 28 15 26 -12 -1 -18
6 -18 23 0 13 -7 26 -15 28 -13 4 -13 3 0 -6 9 -7 10 -11 3 -11 -24 0 -23 20
1 31 21 10 23 14 13 30 -7 11 -16 19 -21 19 -6 0 -5 -5 2 -12 15 -15 15 -28 0
-28 -6 0 -8 3 -5 7 4 3 2 12 -4 19 -7 8 -7 14 1 19 5 3 10 11 10 16 0 6 -4 8
-8 5 -11 -6 -8 82 3 92 4 4 5 1 0 -7 -6 -10 -4 -12 4 -7 9 6 9 11 0 22 -6 7
-9 20 -6 28 3 8 3 17 -1 20 -11 12 -11 40 1 56 11 13 10 13 -5 1 -12 -9 -18
-10 -18 -2 0 6 -7 11 -15 11 -13 0 -14 4 -5 20 6 12 7 20 1 20 -5 0 -12 -6
-15 -12 -3 -7 -4 -4 -3 7 1 11 -2 20 -8 20 -20 1 -34 16 -28 31 5 14 3 15 -15
5 -14 -7 -23 -8 -27 -1 -4 6 -10 8 -15 5 -16 -10 -22 16 -8 33 12 15 11 16 -4
3 -13 -10 -18 -10 -18 -2 0 8 -8 10 -21 6 -16 -6 -20 -4 -13 6 6 11 3 10 -10
-1 -22 -17 -49 -23 -39 -7 4 6 0 8 -9 4 -9 -3 -24 1 -35 10 -15 13 -16 14 -1
9 11 -3 15 -1 12 8 -3 7 3 22 13 31 10 10 18 21 18 24 0 3 4 5 8 3 14 -4 48
19 42 29 -4 5 4 13 15 17 21 8 21 9 5 25 -9 9 -13 17 -8 17 5 0 15 -6 21 -12
10 -10 14 -8 18 10 4 12 10 20 14 17 4 -2 16 5 26 17 11 12 14 18 8 15 -7 -4
-17 0 -24 8 -11 13 -10 14 4 9 13 -5 15 -2 9 12 -6 17 -5 17 10 6 14 -12 16
-11 12 7 -4 23 10 29 19 9 3 -7 2 1 -1 17 -6 28 -5 29 13 15 15 -11 16 -11 7
0 -15 17 -17 34 -3 25 6 -3 7 1 4 9 -3 9 -11 13 -17 9 -6 -4 -7 -1 -2 6 5 9
10 10 18 2 16 -16 23 -13 24 11 2 18 0 20 -7 8 -6 -9 -10 -10 -10 -3 0 6 5 15
11 19 6 3 8 15 6 26 -5 16 -3 17 10 6 15 -12 15 -10 3 12 -12 23 -12 24 4 11
9 -8 19 -11 23 -7 3 3 1 6 -5 6 -7 0 -12 7 -12 16 0 8 4 13 8 10 5 -3 9 1 9 9
0 8 -4 12 -8 9 -4 -2 -11 1 -15 7 -4 8 -3 9 4 5 7 -4 12 -2 12 4 0 6 6 8 13 5
6 -4 4 0 -5 8 -20 16 -14 29 10 19 14 -5 15 -4 2 10 -8 9 -18 14 -22 11 -16
-9 -7 7 15 28 12 12 17 19 10 15 -6 -3 -14 -2 -18 4 -3 5 0 10 7 10 9 0 9 3
-2 10 -11 7 -11 10 -2 10 9 0 10 5 4 18 -11 20 -5 45 9 36 5 -3 9 0 9 5 0 6
-4 11 -9 11 -5 0 -12 7 -15 16 -5 13 -3 14 6 6 10 -8 13 -4 15 15 1 19 -1 22
-8 12 -6 -9 -9 -10 -9 -2 0 6 9 18 21 26 l21 15 -22 7 c-17 6 -19 9 -9 16 8 5
16 3 21 -4 4 -7 6 -2 5 11 0 12 -5 22 -9 22 -4 0 -8 9 -8 21 0 11 -5 17 -10
14 -13 -8 -8 17 5 28 6 4 4 11 -5 17 -8 5 -10 10 -4 10 5 0 16 -6 23 -12 10
-10 9 -5 -1 17 -16 31 -14 55 4 55 6 0 5 -8 -3 -17 -13 -16 -12 -17 4 -4 12
10 14 17 7 26 -6 7 -8 20 -4 29 4 10 1 16 -7 16 -11 0 -11 3 1 10 11 7 11 10
2 10 -7 0 -11 4 -7 10 3 5 13 7 23 4 16 -5 16 -5 0 6 -20 12 -25 35 -5 25 6
-4 4 0 -5 8 -20 16 -25 32 -6 21 6 -4 8 -3 4 4 -3 6 -2 13 4 17 6 4 8 11 4 16
-3 5 -9 7 -14 4 -5 -3 -12 0 -16 6 -4 7 -3 9 4 5 6 -3 13 -2 17 4 3 5 1 10 -4
10 -17 0 -13 31 7 47 9 8 11 12 4 8 -7 -4 -19 -1 -27 5 -9 8 -15 8 -15 2 0 -6
6 -12 12 -14 7 -3 3 -7 -8 -10 -17 -4 -21 -1 -18 18 2 20 -2 24 -22 24 -14 0
-23 4 -20 9 3 5 -2 15 -12 22 -15 12 -16 12 -4 -2 10 -14 10 -18 -3 -23 -9 -3
-13 -2 -10 4 3 6 1 10 -6 10 -7 0 -9 3 -6 7 12 11 -27 32 -40 21 -9 -7 -11 -4
-8 11 2 12 0 21 -6 21 -5 0 -9 -10 -9 -22 0 -18 -2 -20 -9 -8 -6 8 -7 18 -4
24 4 5 1 6 -7 1 -9 -6 -12 -4 -8 7 4 9 0 15 -8 15 -12 0 -12 -4 1 -23 11 -18
12 -25 2 -30 -6 -4 -9 -4 -5 1 4 4 2 13 -5 21 -35 39 -36 41 -24 55 10 11 9
11 -5 0 -16 -12 -16 -15 -2 -39 12 -20 12 -22 2 -10 -8 10 -18 14 -22 10 -4
-4 -7 -2 -6 3 5 21 0 36 -10 30 -6 -4 -8 -10 -5 -15 3 -5 0 -12 -6 -16 -8 -4
-9 -3 -5 4 4 7 3 12 -2 12 -5 0 -9 7 -9 15 0 8 3 12 7 10 3 -2 12 1 20 6 13 9
13 9 0 7 -8 -1 -26 4 -39 11 -14 8 -21 9 -17 2 4 -6 3 -11 -3 -11 -6 0 -9 -6
-7 -12 1 -7 1 -10 -1 -5 -3 4 -10 4 -16 1 -8 -5 -8 -2 1 7 17 18 15 34 -3 19
-18 -15 -20 0 -2 20 6 8 2 6 -10 -4 -18 -15 -26 -16 -37 -7 -8 7 -12 20 -9 28
5 12 3 14 -7 8 -10 -6 -12 -4 -7 8 4 10 2 17 -4 17 -6 0 -9 -9 -6 -20 6 -23
-8 -27 -17 -5 -3 8 -10 15 -16 15 -6 0 -8 -6 -4 -12 5 -10 4 -10 -6 -1 -7 6
-20 9 -29 6 -13 -4 -14 -3 -1 5 8 6 18 8 22 6 4 -3 5 2 2 11 -5 11 -10 13 -17
6 -6 -6 -17 -7 -26 -2 -9 5 -20 11 -26 13 -5 1 -9 6 -8 10 2 5 -2 8 -7 8 -6 0
-10 -5 -10 -12 0 -6 -3 -8 -6 -5 -4 4 -1 13 6 22 12 14 8 17 -16 14 -4 0 -10
5 -14 11 -5 8 -9 7 -13 -3 -4 -11 0 -15 14 -12 11 2 17 0 14 -5 -6 -9 -24 -8
-43 3 -8 6 -9 14 -2 27 9 16 7 18 -16 14 -14 -3 -23 -1 -20 4 2 4 1 14 -5 22
-7 12 -9 12 -9 1 0 -9 -4 -10 -12 -5 -7 5 -31 9 -54 9 -27 -1 -41 3 -41 12 0
7 4 13 9 13 4 0 8 -4 8 -8 0 -12 39 -12 46 0 4 6 3 8 -3 5 -14 -8 -75 22 -68
33 3 5 1 12 -5 15 -6 4 -9 1 -8 -6 2 -9 -8 -14 -29 -14 -18 -1 -30 2 -27 7 3
4 1 15 -4 24 -8 15 -10 15 -15 0 -5 -11 -3 -15 5 -10 7 4 8 3 4 -4 -11 -18
-29 -14 -22 4 5 12 1 14 -17 9 -12 -4 -17 -3 -11 2 7 5 8 16 3 28 -7 18 -8 18
-8 2 -1 -10 -5 -15 -11 -12 -5 3 -10 0 -10 -7 0 -10 -3 -9 -9 2 -6 8 -7 18 -5
22 3 5 -2 11 -10 14 -9 3 -16 14 -17 23 0 12 -2 13 -6 2 -3 -8 2 -20 13 -28
11 -8 13 -13 5 -13 -11 0 -11 -3 -1 -15 19 -22 8 -25 -12 -3 -10 10 -13 18 -7
18 8 0 7 5 -1 15 -8 10 -21 13 -34 9 -17 -5 -19 -4 -8 7 15 16 16 29 1 29 -5
0 -8 -4 -5 -9 3 -5 -1 -11 -9 -14 -10 -4 -12 -1 -8 10 5 13 3 14 -15 4 -15 -8
-23 -8 -28 1 -4 6 -3 8 3 5 6 -4 16 0 22 7 9 11 9 16 0 22 -8 4 -9 3 -5 -4 4
-7 1 -12 -9 -12 -9 0 -13 5 -10 10 3 6 4 10 0 10 -3 0 -10 -10 -15 -22 -7 -18
-9 -19 -9 -5 -1 9 -6 17 -12 17 -5 0 -7 -5 -3 -12 4 -7 3 -8 -5 -4 -15 10 -3
29 15 22 8 -3 14 -1 14 5 0 6 -14 9 -32 7 -19 -2 -33 2 -35 10 -3 6 0 12 7 12
6 0 8 -4 5 -10 -3 -6 1 -7 10 -4 20 8 12 17 -18 19 -12 1 -22 7 -22 12 0 6 -4
15 -8 20 -5 4 -7 1 -5 -7 2 -10 -3 -14 -16 -12 -10 2 -15 -1 -11 -7 3 -7 0 -8
-9 -5 -16 6 -19 13 -19 46 0 10 -4 15 -8 12 -5 -3 -7 -10 -4 -15 4 -5 -1 -9
-11 -9 -12 0 -15 6 -11 21 3 12 3 18 0 15 -4 -3 -16 2 -27 11 -20 17 -20 17
-6 -1 14 -18 13 -19 -3 -13 -10 4 -21 7 -23 7 -3 0 -2 5 1 10 3 6 1 10 -5 10
-6 0 -8 5 -5 10 10 16 -1 11 -16 -7 -8 -9 -9 -14 -2 -10 12 8 12 -17 -1 -30
-4 -4 -6 -1 -4 7 1 8 -3 14 -10 12 -10 -2 -10 2 -2 17 15 29 12 37 -6 15 -12
-15 -14 -15 -10 -2 2 9 -4 24 -15 34 -11 10 -19 12 -19 6 0 -7 4 -12 8 -12 4
0 8 -10 9 -22 0 -13 -1 -17 -4 -10 -3 6 -10 9 -15 6 -7 -4 -8 -2 -4 4 3 6 -2
15 -11 21 -10 5 -17 12 -15 15 1 3 -7 15 -18 26 -11 11 -20 16 -20 11 0 -5
-13 -11 -30 -13 -21 -3 -27 -1 -20 7 10 12 7 13 -40 17 -10 1 -17 4 -15 7 3 2
-3 10 -13 18 -12 10 -8 10 15 -2 29 -14 32 -14 26 0 -3 9 -8 14 -11 11 -2 -3
-13 -1 -23 4 -12 7 -20 7 -24 0 -5 -8 -11 -8 -19 -1 -7 6 -16 7 -21 3 -4 -4
-5 4 -1 18 3 14 3 19 0 13 -3 -7 -10 -13 -15 -13 -6 0 -7 5 -3 11 5 8 -1 10
-19 7 -15 -3 -25 -1 -24 5 1 6 -6 13 -17 15 -13 3 -16 0 -11 -10 7 -11 5 -11
-6 0 -11 11 -11 16 0 35 14 22 14 22 -8 3 -13 -12 -21 -14 -21 -7 0 7 -5 9
-12 5 -10 -6 -10 -4 0 8 10 13 10 18 1 24 -8 4 -9 3 -5 -4 8 -13 -6 -16 -18
-5 -4 4 -26 8 -49 9 -31 2 -37 0 -22 -6 19 -8 19 -9 -2 -9 -12 -1 -24 5 -26
12 -3 6 -6 7 -6 2z m104 -26 c-4 -5 -12 -9 -18 -8 -9 0 -8 2 1 6 6 2 9 10 6
15 -4 7 -2 8 5 4 6 -4 9 -12 6 -17z m-112 -13 c4 -10 1 -13 -8 -9 -8 3 -12 9
-9 14 7 12 11 11 17 -5z m-178 -106 c3 -5 1 -10 -4 -10 -6 0 -11 5 -11 10 0 6
2 10 4 10 3 0 8 -4 11 -10z m663 -56 c1 -1 -4 -7 -13 -14 -13 -11 -14 -10 -8
6 6 17 5 17 -10 5 -11 -9 -17 -10 -17 -2 0 6 5 11 11 11 5 0 7 6 3 13 -5 7 -1
7 12 -3 10 -8 20 -15 22 -16z m176 -122 c3 -5 -1 -9 -9 -9 -8 0 -12 4 -9 9 3
4 7 8 9 8 2 0 6 -4 9 -8z m-1267 -27 c0 -8 -4 -12 -9 -9 -5 3 -6 10 -3 15 9
13 12 11 12 -6z m1382 -18 c0 -9 -2 -8 -6 1 -2 6 -10 9 -15 6 -7 -4 -8 -2 -4
5 9 13 26 5 25 -12z m-869 -39 c0 -5 5 -6 10 -3 6 3 13 -1 16 -10 6 -13 8 -14
15 -3 5 7 9 18 9 23 0 6 -5 3 -10 -5 -5 -8 -10 -10 -10 -5 0 6 4 16 9 24 7 11
10 9 16 -8 3 -11 14 -21 23 -21 13 0 14 2 4 9 -11 7 -11 9 0 14 16 5 21 -24 7
-33 -5 -3 2 -12 14 -19 20 -13 21 -13 9 1 -10 13 -10 17 3 22 9 3 13 2 10 -4
-3 -6 -1 -10 5 -10 6 0 8 -4 5 -10 -3 -5 -1 -10 5 -10 6 0 8 -6 4 -12 -6 -10
-4 -10 7 0 7 6 17 12 22 12 4 0 5 -6 1 -12 -5 -8 0 -7 11 2 17 14 18 13 12 -9
-4 -17 -3 -21 5 -13 8 8 15 6 26 -5 14 -14 17 -14 27 0 10 14 13 13 23 -3 7
-11 18 -17 27 -14 10 4 15 0 15 -12 0 -16 -2 -17 -10 -4 -7 12 -9 11 -8 -6 2
-22 30 -27 57 -10 10 6 12 5 7 -2 -4 -7 -1 -12 9 -12 9 0 14 -4 11 -9 -7 -11
22 -23 37 -15 7 3 4 -1 -5 -9 -22 -18 -23 -31 -2 -23 10 4 13 2 7 -7 -4 -6 -8
-19 -8 -27 -1 -17 -24 -60 -25 -45 0 6 4 15 10 21 6 6 2 14 -13 23 -20 13 -21
13 -9 -2 8 -9 9 -18 3 -21 -5 -3 -12 0 -14 6 -3 7 -4 -1 -2 -19 3 -28 1 -31
-20 -27 -13 2 -27 -1 -30 -7 -5 -7 -13 -4 -26 7 -11 9 -22 14 -26 11 -3 -4 -1
-7 6 -7 7 0 9 -5 6 -10 -4 -6 -11 -8 -16 -5 -5 4 -21 -3 -35 -14 -15 -11 -31
-18 -37 -14 -6 4 -7 1 -2 -7 6 -10 4 -12 -10 -6 -15 5 -16 4 -5 -9 7 -8 9 -15
4 -15 -5 0 -3 -4 4 -9 11 -7 10 -9 -3 -14 -9 -4 -14 -3 -11 2 3 4 -1 17 -9 27
-13 18 -14 18 -10 -6 4 -24 4 -24 -10 -6 -8 11 -15 16 -15 10 0 -5 -10 -20
-23 -34 -12 -14 -18 -20 -14 -14 6 9 3 12 -11 11 -13 -1 -18 -7 -15 -18 3 -9
0 -20 -6 -23 -7 -4 -8 -1 -5 8 3 9 1 16 -6 16 -6 0 -8 5 -4 12 4 7 3 8 -4 4
-6 -4 -9 -13 -6 -20 8 -20 -14 -30 -33 -14 -14 11 -16 11 -8 -1 6 -11 3 -13
-13 -9 -12 3 -21 3 -20 -1 4 -32 -20 -40 -34 -11 -6 11 -7 10 -5 -5 2 -11 9
-19 15 -17 7 1 12 -2 12 -8 0 -14 -12 -12 -40 7 -20 13 -22 14 -13 2 7 -9 9
-20 5 -24 -4 -5 -1 -5 6 -1 6 4 12 2 12 -3 0 -15 -6 -14 -36 5 -13 9 -27 14
-31 10 -3 -3 -1 -6 5 -6 7 0 12 -7 12 -16 0 -9 5 -12 12 -8 7 4 8 3 4 -5 -4
-6 -12 -9 -17 -6 -5 4 -11 0 -14 -7 -6 -16 -45 -22 -45 -7 0 5 -10 1 -22 -11
-23 -21 -51 -29 -30 -8 23 23 12 27 -11 5 -13 -12 -22 -24 -21 -27 2 -3 -2
-12 -7 -20 -8 -12 -9 -11 -7 4 2 10 -2 21 -9 23 -7 3 -9 -4 -6 -19 l6 -23 -20
24 c-15 19 -22 21 -28 11 -5 -8 -4 -11 2 -7 6 4 15 -5 21 -18 9 -19 9 -24 -1
-22 -6 1 -11 -4 -9 -10 3 -18 -3 -16 -19 4 -12 14 -12 16 0 8 10 -6 12 -4 6 5
-6 9 -4 11 5 5 9 -5 11 -4 6 4 -6 8 -12 9 -20 2 -7 -6 -16 -7 -21 -3 -4 4 -2
-4 5 -17 6 -13 7 -21 2 -17 -6 3 -12 3 -15 -1 -2 -5 -2 -2 -1 5 5 20 -14 13
-21 -8 -3 -11 -11 -20 -16 -20 -6 0 -7 6 -2 13 4 6 9 21 10 32 2 16 1 17 -6 5
-5 -8 -7 -18 -4 -24 4 -5 0 -7 -9 -4 -11 5 -14 0 -12 -18 1 -13 -2 -22 -7 -18
-5 3 -6 10 -3 16 4 7 2 8 -4 4 -7 -4 -12 -1 -12 6 0 8 -5 6 -11 -5 -6 -9 -14
-15 -20 -12 -5 4 -9 -3 -9 -13 0 -15 -5 -19 -20 -15 -12 3 -20 0 -20 -6 0 -7
5 -9 12 -5 6 4 8 3 5 -4 -4 -5 -18 -9 -32 -7 -14 1 -33 -4 -42 -12 -10 -8 -12
-12 -5 -8 6 3 12 1 12 -4 0 -6 -7 -11 -16 -11 -8 0 -12 -4 -9 -10 3 -6 -1 -7
-10 -4 -12 5 -13 10 -6 17 6 6 11 16 11 21 0 6 -7 0 -16 -12 -8 -12 -12 -27
-8 -34 4 -7 3 -8 -4 -4 -7 4 -12 2 -12 -3 0 -6 -5 -11 -11 -11 -5 0 -8 4 -5 8
2 4 1 14 -3 21 -6 9 -11 10 -15 2 -4 -6 -3 -11 2 -11 5 0 9 -7 9 -15 0 -8 -7
-15 -14 -15 -8 0 -11 5 -8 10 3 6 2 10 -3 10 -17 0 -22 -13 -10 -27 6 -8 7
-13 2 -12 -5 1 -12 0 -16 -1 -5 -1 -11 -3 -15 -5 -24 -6 -42 -18 -39 -24 3 -4
-5 -8 -17 -8 -16 -2 -18 0 -8 7 8 4 16 19 18 32 2 17 1 19 -6 8 -5 -8 -7 -18
-5 -22 3 -4 0 -8 -7 -8 -6 0 -18 -8 -26 -17 -8 -10 -12 -12 -8 -5 3 6 1 12 -4
12 -6 0 -11 -5 -11 -11 0 -8 -4 -8 -14 0 -11 9 -16 9 -22 0 -4 -7 -3 -9 3 -6
11 7 28 -22 18 -31 -3 -3 -5 1 -5 9 0 11 -2 11 -10 -1 -6 -10 -10 -11 -10 -2
0 6 -5 12 -11 12 -5 0 -7 -5 -3 -12 5 -8 2 -9 -10 -5 -12 5 -16 2 -14 -11 2
-13 -3 -16 -22 -14 -25 4 -25 3 -5 -13 16 -13 17 -16 3 -11 -10 3 -20 0 -24
-6 -5 -7 -2 -8 6 -3 10 6 12 3 7 -14 -4 -17 -2 -21 9 -17 8 3 14 1 14 -4 0 -6
-7 -10 -16 -10 -8 0 -12 -5 -9 -10 4 -6 11 -7 17 -4 7 4 8 2 4 -5 -4 -6 -12
-9 -17 -6 -5 4 -9 1 -9 -4 0 -6 5 -11 10 -11 6 0 5 -6 -2 -14 -7 -8 -17 -11
-23 -8 -5 3 3 -9 19 -26 27 -29 29 -36 9 -29 -5 1 -7 5 -6 10 2 4 -1 7 -6 7
-6 0 -9 -9 -8 -20 1 -11 6 -20 13 -20 9 0 12 -42 4 -60 -1 -3 -2 -9 -1 -13 1
-4 -9 -3 -21 3 -21 10 -21 10 -6 -3 14 -11 15 -16 5 -27 -9 -10 -9 -11 1 -6 9
5 12 -4 12 -36 0 -31 -3 -39 -10 -28 -6 9 -10 10 -10 3 0 -6 4 -14 9 -17 10
-7 9 -25 -2 -43 -5 -7 -4 -13 2 -13 5 0 11 5 13 12 3 7 7 5 11 -6 4 -10 3 -15
-3 -11 -11 7 -14 -8 -3 -19 10 -10 11 -46 1 -40 -4 3 -8 0 -8 -5 0 -6 5 -11
12 -11 9 0 9 -3 0 -12 -8 -8 -9 -15 0 -25 8 -10 7 -12 -5 -7 -15 5 -18 59 -4
81 4 6 1 16 -6 22 -11 8 -13 -5 -12 -69 0 -46 -3 -76 -9 -73 -5 4 -6 1 -1 -6
5 -9 10 -10 18 -2 6 6 16 11 22 11 5 0 4 -4 -4 -9 -12 -8 -13 -12 -1 -26 11
-13 11 -15 0 -13 -7 2 -15 -3 -18 -11 -3 -9 0 -11 8 -6 8 5 11 4 6 -3 -3 -5
-3 -12 1 -15 5 -2 2 -2 -4 -1 -11 3 -18 -9 -10 -19 1 -2 -5 -12 -13 -22 -14
-17 -14 -17 7 -7 27 15 37 1 18 -24 -15 -18 -15 -18 -9 1 4 15 4 17 -4 6 -6
-8 -8 -20 -5 -28 4 -11 8 -11 22 -1 14 11 14 11 4 -3 -7 -9 -10 -19 -6 -23 4
-4 0 -4 -8 -1 -10 4 -16 0 -16 -9 0 -8 3 -14 6 -12 3 2 13 -3 21 -12 13 -14
12 -15 -3 -9 -9 3 -17 2 -17 -3 0 -20 -2 -25 -13 -39 -10 -12 -9 -12 9 -3 25
13 39 5 23 -15 -9 -10 -8 -13 2 -13 10 0 10 -3 1 -12 -8 -8 -9 -15 0 -25 8
-11 7 -12 -5 -7 -11 4 -15 15 -12 36 2 17 1 27 -3 23 -10 -10 -11 -175 -1
-175 5 0 7 6 5 13 -1 6 -1 9 1 4 3 -4 10 -4 16 0 7 4 6 0 -1 -10 -15 -18 -7
-41 11 -30 7 3 4 -3 -6 -14 -13 -14 -15 -23 -7 -28 8 -5 8 -11 -1 -21 -9 -11
-8 -14 2 -15 10 0 11 -2 1 -6 -6 -2 -10 -9 -7 -14 4 -5 -2 -6 -12 -2 -10 3
-15 3 -11 -2 4 -4 2 -15 -5 -24 -11 -14 -10 -14 6 -2 11 9 17 10 17 2 0 -6 8
-12 18 -12 16 -1 16 -2 -1 -6 -9 -2 -14 -9 -11 -15 4 -7 2 -8 -5 -4 -6 4 -8
13 -5 19 4 7 3 9 -1 5 -5 -5 -10 -20 -11 -34 -2 -21 0 -23 12 -13 12 10 13 9
8 -5 -3 -9 -11 -16 -18 -16 -6 -1 0 -8 14 -16 24 -15 24 -15 2 -11 -16 4 -25
-1 -33 -16 -9 -20 -9 -21 4 -4 9 11 18 14 21 8 4 -5 2 -12 -3 -16 -6 -3 -7
-15 -1 -29 5 -15 5 -27 -3 -35 -8 -8 -7 -11 3 -11 7 0 11 -3 7 -6 -12 -12 -28
7 -18 20 8 9 7 13 -3 13 -14 0 -14 -25 0 -50 4 -6 -3 -3 -17 8 -13 11 -19 13
-12 6 6 -7 9 -20 6 -29 -5 -11 -3 -13 8 -7 12 7 12 6 1 -7 -7 -9 -26 -21 -42
-28 -18 -7 -27 -17 -23 -24 4 -6 -1 -5 -10 3 -14 11 -17 11 -18 0 0 -10 -2
-11 -6 -1 -2 6 -11 12 -19 12 -10 0 -12 -5 -8 -12 6 -10 5 -10 -8 -1 -8 7 -18
10 -21 6 -7 -6 -11 13 -7 32 1 5 -2 7 -6 3 -4 -4 -14 0 -22 10 -10 12 -9 9 2
-10 10 -18 12 -29 5 -33 -6 -4 -13 -4 -16 -1 -4 3 -1 6 6 6 15 0 -1 17 -41 42
-20 13 -28 14 -31 5 -4 -9 -6 -9 -6 0 -1 6 4 15 9 18 13 8 13 25 -1 25 -5 0
-7 -5 -4 -10 3 -5 1 -10 -4 -10 -15 0 -14 27 2 33 6 3 2 6 -10 6 -13 1 -21 -4
-19 -11 1 -7 1 -10 -1 -5 -3 4 -8 5 -13 2 -4 -2 -7 3 -7 13 0 76 -2 83 -25 78
-13 -3 -17 -3 -10 0 6 3 12 12 12 20 0 9 5 12 12 8 7 -4 8 -3 4 4 -4 7 -13 12
-20 12 -7 0 -13 7 -13 15 0 10 4 12 12 5 8 -7 12 -5 12 5 0 7 -3 14 -6 13 -23
-2 -41 4 -36 12 4 6 10 8 15 5 5 -3 12 0 16 6 4 8 3 9 -4 5 -7 -4 -12 -2 -12
4 0 6 -5 8 -12 4 -9 -5 -9 -2 1 9 9 11 10 17 2 17 -6 0 -11 5 -11 11 0 5 3 8
8 5 4 -2 7 17 6 42 -1 26 -2 47 -4 47 -1 0 -3 12 -4 28 -2 15 1 27 6 27 4 0 8
5 8 11 0 5 -4 8 -9 5 -4 -3 -17 1 -27 9 -19 13 -18 13 1 12 15 -2 20 4 19 21
-1 12 4 22 10 22 6 0 4 5 -4 10 -13 9 -13 11 0 21 13 9 13 10 -2 6 -9 -3 -19
0 -22 8 -3 9 0 12 10 8 10 -4 12 0 8 11 -3 9 -11 13 -18 9 -6 -3 -2 3 8 15 11
12 15 22 10 22 -5 0 -2 5 6 11 13 9 13 10 0 6 -8 -2 -14 -9 -13 -14 1 -5 -5
-10 -12 -10 -10 0 -12 4 -5 12 5 7 7 15 3 18 -3 4 1 7 11 7 14 0 15 4 6 20 -9
16 -8 20 5 20 9 0 13 5 10 10 -4 7 -13 6 -26 -1 -18 -9 -19 -8 -7 10 6 11 16
18 20 15 4 -3 5 2 2 10 -3 9 -11 13 -18 9 -6 -3 -3 3 7 14 9 11 14 23 10 26
-3 4 -1 7 5 7 7 0 12 5 12 11 0 5 -4 8 -9 5 -4 -3 -17 2 -27 10 -10 9 -13 13
-6 9 15 -8 44 13 37 25 -3 5 -15 6 -28 3 -12 -3 -18 -1 -12 4 6 4 10 18 9 31
-1 12 2 25 7 27 4 3 6 -6 3 -20 -2 -14 0 -25 5 -25 6 0 8 9 6 20 -2 11 2 20 8
20 7 0 6 4 -3 10 -13 9 -13 11 0 21 12 8 9 9 -10 3 -25 -7 -25 -7 -6 15 11 11
15 21 10 21 -5 0 -2 5 6 11 12 8 10 9 -7 4 -12 -3 -24 -1 -28 5 -4 6 -3 10 2
9 23 -4 32 2 26 18 -5 12 -3 14 7 8 10 -6 11 -4 4 6 -5 8 -10 30 -10 49 -2 58
-3 60 -21 61 -13 0 -12 3 6 10 19 8 21 12 11 24 -11 13 -10 14 4 9 9 -3 16 -1
16 5 0 6 -3 10 -7 10 -5 -1 -17 -1 -28 0 -18 1 -17 3 5 14 14 8 23 20 21 28
-10 34 -7 139 3 139 6 0 4 5 -4 10 -13 9 -13 11 0 21 12 8 9 9 -10 3 -25 -7
-25 -7 -6 15 11 11 15 21 10 21 -5 0 -2 5 6 11 12 8 10 9 -7 4 -12 -3 -24 -1
-28 5 -4 6 -3 10 2 9 23 -4 32 2 26 18 -5 11 -3 14 6 8 8 -4 6 3 -4 18 -11 17
-13 27 -5 32 6 3 8 11 5 16 -4 5 -1 9 6 9 8 0 8 4 -1 15 -10 12 -10 15 1 15 9
0 10 3 3 8 -13 9 -13 64 1 75 6 5 4 7 -5 4 -8 -2 -13 -12 -12 -23 2 -10 2 -17
0 -14 -2 3 -10 13 -18 23 -11 15 -11 18 0 15 8 -2 14 2 15 7 1 19 16 35 33 35
13 -1 11 -5 -8 -16 -17 -10 -18 -13 -5 -8 11 3 26 7 34 7 9 0 6 7 -9 19 -28
23 -13 24 20 1 l25 -17 -19 22 c-11 12 -16 25 -13 29 4 3 7 1 7 -5 0 -6 7 -9
17 -5 12 5 14 3 8 -8 -6 -11 -5 -12 5 -2 11 10 17 10 29 0 12 -9 13 -9 7 1 -4
7 -2 12 5 12 6 0 9 8 6 20 -3 13 -1 18 6 13 7 -4 8 0 4 11 -4 10 -3 15 4 11 5
-4 7 -16 4 -28 -5 -16 -4 -18 3 -8 5 7 15 10 22 6 9 -6 9 -3 1 13 -17 32 -13
37 10 11 l20 -24 -11 24 c-10 19 -10 22 2 15 7 -5 23 -9 35 -10 19 -1 21 1 10
14 -10 12 -9 16 2 20 11 4 11 6 0 14 -11 8 -11 9 1 5 8 -2 14 -11 12 -21 -3
-18 13 -22 23 -6 3 6 11 10 16 10 6 0 8 -4 5 -8 -2 -4 4 -8 15 -8 18 0 18 2 5
12 -18 13 -21 34 -5 34 5 0 7 -4 4 -10 -4 -6 1 -7 11 -3 14 5 15 8 3 17 -8 6
-15 18 -17 26 -2 11 1 11 11 -2 8 -10 20 -18 26 -18 7 0 9 -5 6 -11 -4 -6 2
-5 14 3 12 7 21 17 21 22 0 4 -6 3 -13 -3 -10 -8 -14 -7 -14 4 0 8 4 12 9 9 4
-3 8 0 8 7 0 6 9 1 21 -12 11 -13 18 -18 14 -11 -6 11 7 17 29 13 5 -1 4 5 -4
13 -7 9 -18 16 -24 16 -7 0 -6 -4 2 -9 11 -7 11 -9 -1 -14 -9 -3 -14 0 -13 8
4 25 15 28 39 12 19 -12 24 -13 24 -2 0 8 -4 12 -8 10 -3 -3 -13 3 -20 13 -13
15 -12 16 4 3 16 -12 22 -9 18 12 -1 5 3 5 9 2 7 -4 23 4 37 16 15 13 23 19
19 12 -3 -6 -2 -14 4 -18 11 -7 4 -25 -10 -25 -5 0 -7 8 -4 18 4 10 3 13 -3 6
-4 -6 -16 -15 -25 -20 -12 -7 -14 -14 -8 -24 8 -13 10 -12 10 3 0 13 5 17 19
12 19 -6 49 20 37 32 -7 7 22 43 36 43 4 0 8 -5 8 -11 0 -5 -4 -8 -9 -4 -5 3
-13 0 -17 -6 -5 -8 -1 -10 14 -7 12 3 22 3 24 -2 2 -4 12 2 23 13 20 20 20 20
-2 8 -13 -6 -23 -8 -23 -2 0 5 11 12 25 15 17 4 23 11 19 19 -4 7 -4 9 1 5 4
-4 14 -3 21 2 6 6 16 10 20 9 22 -4 35 2 28 12 -4 7 -1 10 7 7 8 -3 13 -11 11
-17 -1 -7 2 -10 7 -6 6 3 8 12 5 19 -3 8 0 17 5 21 6 3 9 10 7 14 -3 4 7 7 22
6 15 -1 30 3 34 9 4 6 12 12 18 12 5 1 13 2 16 3 4 0 0 9 -7 19 -13 15 -12 16
3 4 19 -15 42 -7 32 11 -5 8 -3 8 7 0 16 -16 33 -17 23 -1 -4 7 -3 8 4 4 6 -4
9 -14 6 -24 -5 -14 -4 -15 5 -2 6 8 8 24 5 35 -4 14 -2 16 4 7 6 -10 13 -8 27
8 20 22 35 26 35 9 0 -5 -4 -8 -9 -4 -6 3 -15 -4 -21 -15 -11 -20 -10 -21 12
-7 13 8 31 13 41 12 9 -2 15 1 11 6 -3 5 -9 7 -13 5 -4 -3 -8 5 -8 17 -1 12 1
17 5 12 4 -6 16 -17 27 -25 18 -14 19 -14 7 2 -10 12 -11 22 -3 35 7 12 10 13
11 4 0 -11 3 -11 14 -2 11 10 20 10 37 0 23 -12 23 -12 6 14 -14 22 -14 25 -2
21 8 -4 15 -10 15 -15 0 -4 7 -6 16 -2 13 5 13 7 2 14 -9 6 -9 9 -1 9 7 0 16
-6 20 -14 6 -10 15 -6 38 17 17 17 23 25 14 18 -13 -9 -18 -9 -22 3 -4 10 -1
13 9 9 8 -3 14 1 14 8 1 10 4 9 10 -3 6 -10 18 -14 31 -11 16 4 17 8 7 14 -10
7 -9 9 4 9 9 0 19 -6 22 -12 3 -7 3 -3 0 9 -4 17 -2 21 9 17 8 -3 18 0 23 7 4
7 3 10 -4 5 -6 -3 -14 -1 -18 6 -4 7 -4 10 1 6 4 -4 14 -3 22 3 7 6 13 8 13 4
0 -5 8 -1 18 8 12 11 22 13 32 7 13 -9 13 -10 0 -11 -8 -1 -19 -1 -23 0 -5 1
-6 -3 -2 -9 4 -7 12 -7 26 0 24 13 24 15 -3 40 l-23 22 28 -13 c15 -7 27 -16
27 -21z m-600 8 c0 -3 -4 -8 -10 -11 -5 -3 -10 -1 -10 4 0 6 5 11 10 11 6 0
10 -2 10 -4z m770 -40 c0 -3 -4 -8 -10 -11 -5 -3 -10 -1 -10 4 0 6 5 11 10 11
6 0 10 -2 10 -4z m-310 -16 c0 -5 -5 -10 -11 -10 -5 0 -7 5 -4 10 3 6 8 10 11
10 2 0 4 -4 4 -10z m388 -35 c-3 -3 -9 2 -12 12 -6 14 -5 15 5 6 7 -7 10 -15
7 -18z m-493 -15 c-3 -5 -12 -10 -18 -10 -7 0 -6 4 3 10 19 12 23 12 15 0z
m25 -14 c0 -2 -7 -7 -16 -10 -8 -3 -12 -2 -9 4 6 10 25 14 25 6z m563 -9 c3
-8 -1 -14 -8 -14 -7 0 -11 6 -8 14 3 7 6 13 8 13 2 0 5 -6 8 -13z m-1248 -27
c-3 -5 -12 -10 -18 -10 -7 0 -6 4 3 10 19 12 23 12 15 0z m2180 1 c3 -5 1 -12
-5 -16 -5 -3 -10 1 -10 9 0 18 6 21 15 7z m106 -63 c11 -21 11 -22 -4 -9 -10
7 -17 17 -17 22 0 15 9 10 21 -13z m-26 -8 c3 -5 1 -10 -4 -10 -6 0 -11 5 -11
10 0 6 2 10 4 10 3 0 8 -4 11 -10z m70 -10 c-3 -5 -12 -10 -18 -10 -7 0 -6 4
3 10 19 12 23 12 15 0z m-1140 -90 c-3 -5 -1 -10 6 -10 18 0 4 -11 -18 -15
-10 -1 -17 -9 -15 -16 3 -11 1 -11 -9 -2 -9 9 -16 10 -26 2 -7 -7 -13 -8 -13
-3 0 5 -5 2 -11 -6 -9 -13 -10 -13 -6 0 2 8 9 14 15 13 6 -2 16 7 22 18 7 11
18 18 25 15 8 -3 17 -1 20 4 4 6 8 10 11 10 3 0 2 -4 -1 -10z m-158 -85 c0 -8
-4 -12 -9 -9 -5 3 -6 10 -3 15 9 13 12 11 12 -6z m720 -5 c10 -12 12 -12 13
-1 0 10 3 11 13 2 8 -6 17 -8 20 -4 4 3 7 1 7 -6 0 -7 5 -9 11 -5 8 4 9 -1 4
-17 -7 -24 -7 -24 10 -4 9 11 14 14 10 8 -3 -7 -2 -13 4 -13 5 0 11 5 13 12 3
7 7 5 11 -6 4 -9 3 -15 -2 -11 -5 3 -12 1 -15 -4 -7 -10 20 -9 30 2 14 14 26
7 14 -8 -10 -12 -8 -14 12 -10 21 4 21 3 6 -9 -10 -7 -18 -17 -18 -21 0 -4 6
-3 13 2 18 14 59 14 54 0 -3 -7 -10 -11 -17 -9 -11 3 -11 0 0 -12 15 -19 21
-20 18 -3 -2 7 8 12 24 13 15 1 27 -2 26 -5 -2 -18 3 -31 12 -31 5 0 6 8 3 18
-4 9 7 2 24 -15 17 -18 36 -33 43 -33 6 0 9 -4 5 -9 -3 -5 -1 -12 4 -15 14 -9
7 19 -9 40 -14 17 -13 18 1 7 9 -7 18 -11 20 -8 3 2 6 -10 7 -28 1 -18 5 -41
7 -52 3 -11 2 -14 -1 -7 -3 6 -11 9 -17 5 -7 -4 -8 0 -4 13 7 18 6 18 -6 2
-10 -12 -17 -14 -24 -7 -8 8 -13 7 -18 0 -3 -6 -3 -11 2 -10 4 1 16 -1 26 -6
14 -6 16 -10 6 -16 -8 -4 -20 -3 -28 4 -12 9 -13 9 -7 0 4 -7 3 -13 -3 -13 -5
0 -12 6 -15 13 -3 6 -3 0 -1 -15 4 -34 -2 -36 -16 -5 -9 21 -9 21 -6 -5 4 -25
3 -26 -18 -12 -20 13 -24 13 -36 -3 -9 -11 -10 -14 -1 -9 7 4 12 2 12 -4 0 -7
-12 -9 -30 -7 -17 3 -28 1 -27 -5 1 -6 -4 -13 -12 -16 -8 -2 -11 0 -7 6 3 6 1
14 -5 18 -8 4 -9 3 -5 -4 7 -12 -27 -35 -37 -26 -3 3 -3 -5 0 -18 3 -13 1 -19
-4 -13 -10 14 -29 13 -43 -1 -8 -8 -6 -11 4 -11 8 0 12 5 9 11 -3 6 -4 9 0 6
9 -8 8 -25 -3 -26 -5 -1 -15 -2 -21 -3 -5 0 -7 -6 -3 -13 4 -7 3 -8 -4 -4 -6
4 -10 12 -8 19 1 7 1 9 -1 4 -3 -4 -9 -5 -14 -1 -5 3 -8 0 -7 -8 2 -8 -6 -13
-19 -12 -16 0 -20 -3 -13 -11 11 -13 3 -25 -14 -25 -6 0 -4 5 4 10 17 11 10
13 -14 4 -9 -3 -13 -10 -10 -15 3 -5 -2 -6 -10 -3 -9 3 -13 10 -10 15 3 5 -2
6 -11 2 -13 -5 -14 -7 -3 -14 7 -5 11 -9 8 -10 -3 0 -13 -2 -22 -4 -10 -2 -18
2 -18 8 0 6 -7 1 -16 -11 -8 -12 -20 -19 -26 -16 -7 5 -8 2 -4 -5 6 -8 2 -11
-10 -9 -12 2 -18 -2 -16 -11 2 -9 -3 -11 -13 -7 -11 4 -14 2 -9 -6 5 -8 2 -9
-9 -5 -15 6 -22 -3 -18 -25 0 -4 -12 -3 -27 2 -24 9 -25 9 -9 -4 16 -12 16
-13 -7 -13 -18 0 -23 4 -19 16 4 13 3 14 -5 1 -6 -8 -8 -18 -6 -22 3 -4 0 -8
-6 -8 -7 0 -10 -7 -6 -17 4 -11 -2 -8 -14 7 -16 20 -19 21 -13 5 6 -17 4 -18
-8 -8 -13 10 -16 10 -16 -2 0 -8 3 -12 7 -10 3 2 12 -1 20 -7 12 -8 12 -9 -2
-4 -10 3 -20 1 -24 -5 -4 -6 -10 -7 -17 0 -14 10 -40 -12 -29 -25 4 -4 1 -4
-5 0 -7 4 -13 2 -13 -3 0 -6 -5 -11 -12 -11 -9 0 -9 3 0 12 15 15 15 28 1 28
-5 0 -8 -4 -5 -9 3 -5 -1 -12 -9 -15 -8 -3 -15 -9 -14 -13 4 -22 -3 -25 -19
-10 -15 14 -19 15 -19 2 0 -8 5 -11 11 -8 6 4 5 -1 -2 -10 -8 -9 -17 -16 -20
-15 -21 2 -32 -3 -26 -14 5 -7 3 -8 -6 -3 -10 6 -9 11 5 21 10 7 22 11 26 8 5
-3 6 2 3 10 -5 14 -8 14 -21 1 -8 -8 -19 -15 -24 -15 -5 0 -9 -7 -9 -15 0 -16
-12 -20 -24 -8 -16 17 -34 10 -30 -11 3 -20 0 -22 -36 -21 -21 1 -37 -2 -34
-7 3 -5 9 -6 13 -4 4 3 13 0 21 -5 13 -9 13 -10 0 -8 -31 3 -50 -1 -50 -12 0
-5 5 -7 12 -3 7 5 8 3 4 -5 -6 -9 -12 -9 -25 3 -20 18 -36 10 -20 -10 7 -8 6
-14 -2 -20 -8 -4 -9 -3 -5 4 4 7 1 12 -9 12 -9 0 -14 4 -11 8 3 5 -1 9 -8 9
-7 0 -13 -6 -13 -13 0 -7 4 -11 8 -8 4 2 10 0 13 -5 3 -5 -7 -8 -23 -7 -16 1
-29 0 -29 -3 2 -27 -3 -34 -14 -18 -10 13 -17 14 -28 6 -13 -9 -12 -10 3 -5 9
3 17 1 17 -4 0 -6 -6 -10 -14 -10 -8 0 -17 -7 -20 -16 -5 -12 -10 -14 -20 -5
-16 13 -27 4 -19 -17 4 -9 2 -13 -4 -9 -6 4 -19 0 -27 -9 -9 -8 -16 -11 -16
-5 0 6 -5 11 -11 11 -6 0 -9 -7 -6 -15 4 -8 2 -17 -4 -20 -5 -4 -9 -3 -8 2 4
24 -3 25 -15 3 -9 -18 -10 -29 -2 -39 9 -12 7 -12 -12 -2 l-23 12 18 -28 c17
-27 17 -28 -1 -13 -18 14 -19 14 -7 -7 6 -13 9 -23 5 -23 -3 0 0 -8 7 -17 10
-11 10 -14 2 -9 -8 4 -13 2 -13 -8 0 -8 5 -18 10 -21 8 -5 7 -11 -1 -21 -9
-11 -9 -14 0 -14 7 0 9 -5 6 -10 -4 -6 -11 -8 -16 -5 -10 7 -1 -24 13 -42 6
-7 4 -14 -3 -19 -8 -5 -9 -3 -4 6 5 8 4 11 -3 6 -6 -4 -9 -13 -6 -21 4 -8 11
-12 16 -9 6 4 5 -3 -1 -15 -9 -16 -9 -21 1 -21 8 0 6 -5 -4 -11 -9 -5 -15 -16
-12 -24 4 -8 10 -12 15 -9 5 3 6 -2 3 -10 -3 -9 -10 -13 -15 -10 -5 3 -6 -2
-3 -10 3 -9 11 -16 18 -16 6 0 3 -5 -6 -11 -10 -5 -18 -15 -18 -22 0 -7 4 -6
10 3 5 8 10 13 11 10 0 -3 2 -13 4 -23 2 -9 -1 -15 -6 -11 -13 7 -11 -10 2
-23 8 -8 7 -13 -2 -18 -8 -6 -10 -4 -4 5 5 8 4 11 -3 6 -6 -4 -9 -13 -6 -21 4
-8 11 -12 18 -8 7 4 6 1 -2 -9 -13 -16 -12 -44 2 -67 6 -9 5 -12 -1 -8 -6 4
-10 -4 -10 -18 0 -16 4 -22 11 -18 6 4 6 0 -2 -9 -13 -16 -12 -44 2 -67 7 -10
6 -12 -4 -6 -10 6 -12 4 -7 -8 3 -10 2 -17 -3 -17 -6 0 -10 -4 -10 -10 0 -5 6
-7 13 -4 8 3 14 -2 14 -11 0 -9 -6 -14 -13 -11 -8 3 -11 0 -7 -10 3 -7 9 -14
15 -14 5 0 2 -7 -7 -16 -12 -12 -13 -19 -4 -30 8 -10 8 -14 0 -14 -6 0 -11 -4
-11 -10 0 -5 8 -7 18 -4 13 5 13 2 -4 -13 l-22 -20 21 -13 21 -13 -22 -18
c-14 -10 -18 -20 -12 -24 6 -3 7 -11 4 -17 -4 -7 -2 -8 5 -4 9 6 10 0 5 -20
-5 -21 -4 -25 6 -19 9 5 11 4 6 -4 -4 -6 -11 -9 -16 -6 -5 3 -11 1 -15 -5 -3
-6 4 -10 17 -10 18 0 20 -2 8 -10 -12 -8 -13 -13 -3 -29 9 -15 10 -22 1 -27
-7 -5 -8 -3 -3 6 5 9 4 11 -3 6 -17 -10 -15 -26 4 -26 8 0 12 -5 9 -10 -4 -6
-12 -7 -18 -3 -7 4 -6 0 2 -10 11 -14 11 -17 0 -18 -8 0 -5 -4 6 -9 14 -6 15
-9 5 -9 -10 -1 -16 -10 -16 -25 0 -14 4 -22 8 -20 5 3 5 10 2 16 -4 7 -2 8 4
4 13 -8 5 -36 -10 -36 -5 0 -6 -5 -3 -10 4 -6 12 -7 18 -3 7 4 6 0 -2 -10 -11
-14 -11 -20 -1 -32 7 -9 10 -18 6 -22 -3 -3 -6 -2 -6 4 0 6 -7 13 -15 17 -13
4 -13 2 -5 -14 12 -23 13 -33 1 -26 -5 4 -7 -4 -3 -16 3 -14 1 -19 -6 -14 -8
5 -10 1 -5 -9 3 -10 0 -21 -8 -27 -10 -7 -7 -8 11 -4 14 3 19 3 12 0 -6 -3
-10 -10 -7 -15 4 -5 -1 -6 -9 -3 -9 3 -16 1 -16 -5 0 -6 5 -11 10 -11 6 0 10
-5 10 -11 0 -5 -4 -8 -9 -5 -14 9 -19 -17 -8 -39 9 -18 9 -19 -6 -6 -15 12
-17 11 -17 -5 0 -16 -2 -17 -11 -4 -9 12 -10 11 -6 -6 3 -13 -1 -21 -9 -21 -7
0 -10 5 -7 11 4 6 -4 2 -16 -8 -15 -14 -20 -15 -16 -5 4 10 -1 15 -15 16 -11
1 -20 -3 -20 -8 0 -6 5 -7 12 -3 7 5 8 3 4 -5 -6 -9 -13 -8 -29 6 -11 10 -17
12 -12 4 6 -10 4 -12 -4 -7 -7 5 -10 14 -7 22 4 11 2 11 -14 2 -22 -14 -54 6
-46 29 8 19 -24 29 -35 12 -8 -11 -9 -9 -7 6 2 12 -2 19 -10 17 -8 -1 -11 2
-7 8 5 8 11 7 21 -1 12 -10 13 -9 8 5 -5 12 -14 16 -31 13 -17 -3 -21 -1 -14
6 7 7 3 17 -14 33 -14 13 -20 24 -13 26 6 2 12 12 14 21 1 9 -2 15 -7 11 -5
-3 -7 -11 -3 -17 3 -7 -2 -3 -11 8 -9 11 -15 32 -12 47 2 15 0 25 -5 22 -13
-8 -9 11 4 25 11 10 10 11 -4 6 -11 -4 -18 -2 -18 4 0 6 8 12 18 12 16 1 16 2
0 6 -10 2 -18 9 -18 14 0 6 5 7 10 4 6 -3 10 -2 10 4 0 5 -5 11 -12 13 -6 2
-9 12 -5 21 4 10 7 21 8 25 0 4 6 13 12 20 8 10 7 12 -3 10 -7 -2 -17 8 -21
22 -4 14 -7 19 -8 11 -1 -8 -3 -12 -6 -9 -10 9 7 38 18 31 6 -4 7 -1 2 7 -4 7
-2 15 5 20 8 5 7 9 -5 13 -9 4 -13 3 -10 -2 3 -5 0 -13 -7 -17 -7 -4 -10 -4
-6 1 4 4 3 14 -3 21 -13 16 7 30 24 15 10 -8 13 -4 13 14 0 13 -4 21 -8 19 -5
-3 -5 -10 -2 -16 4 -7 2 -8 -4 -4 -9 5 -9 13 -2 27 6 10 8 19 4 19 -3 0 0 8 7
17 10 11 10 14 2 9 -8 -4 -13 -1 -13 9 0 9 3 14 8 12 4 -3 8 6 8 19 1 13 -2
24 -8 24 -5 0 -6 -5 -2 -12 4 -7 3 -8 -4 -4 -8 5 -10 2 -6 -8 3 -9 1 -16 -6
-16 -6 0 -8 5 -5 10 3 5 0 10 -7 10 -10 0 -9 3 1 9 8 5 16 23 17 40 2 20 -1
29 -8 25 -7 -4 -8 -2 -4 5 4 6 13 8 19 5 7 -4 9 -4 5 1 -4 4 -2 15 5 23 9 13
9 14 0 8 -8 -4 -13 -1 -13 9 0 9 3 14 8 12 4 -3 8 6 8 19 1 13 -2 24 -8 24 -5
0 -6 -5 -2 -12 4 -7 3 -8 -4 -4 -8 5 -10 2 -6 -8 3 -9 1 -16 -6 -16 -6 0 -8 5
-5 10 3 6 0 10 -7 10 -10 0 -9 3 1 9 8 5 16 23 17 40 2 20 -1 29 -8 25 -7 -4
-8 -2 -4 5 4 6 13 8 19 5 7 -4 9 -4 5 1 -4 4 -2 15 5 23 9 13 9 14 0 8 -8 -4
-13 -1 -13 9 0 9 3 14 8 12 4 -3 8 6 8 19 1 13 -2 24 -8 24 -5 0 -6 -5 -2 -12
4 -7 3 -8 -4 -4 -8 5 -10 2 -6 -8 3 -9 1 -16 -6 -16 -6 0 -8 5 -5 10 3 6 0 10
-7 10 -10 0 -9 3 2 10 18 11 25 94 7 83 -7 -4 -6 1 2 11 10 12 16 14 22 5 3
-6 6 2 6 19 -1 17 -5 28 -8 26 -4 -2 -9 3 -13 11 -3 9 0 15 10 15 8 0 12 5 9
10 -4 6 -10 8 -15 5 -10 -6 -35 23 -26 32 3 3 6 1 6 -6 0 -7 5 -9 10 -6 6 4 8
10 5 15 -3 5 0 12 6 16 8 5 9 3 4 -6 -5 -9 -4 -11 4 -6 6 4 9 12 5 17 -3 5 -9
7 -14 4 -5 -3 -7 15 -4 40 3 36 1 45 -8 39 -9 -5 -8 -2 1 10 10 12 16 14 22 5
3 -6 6 2 6 19 -1 17 -5 28 -8 26 -4 -2 -9 3 -13 11 -3 9 0 15 9 15 8 0 15 5
15 11 0 5 -5 7 -10 4 -6 -4 -8 3 -6 17 3 13 5 23 6 23 2 0 3 19 4 42 1 23 -1
40 -5 37 -4 -2 -6 -16 -3 -29 2 -14 0 -25 -5 -25 -5 0 -7 18 -5 41 3 25 0 38
-6 34 -14 -9 1 28 17 40 13 10 13 31 0 52 -4 6 -2 13 5 15 8 3 6 7 -4 11 -13
4 -16 1 -13 -14 2 -10 0 -19 -6 -19 -9 0 -6 41 6 59 3 5 -3 14 -12 20 -11 6
-13 11 -5 11 7 0 10 5 6 11 -4 7 2 6 17 -1 24 -13 24 -13 5 9 -11 11 -16 24
-13 28 4 3 7 2 7 -4 0 -6 7 -14 16 -17 15 -6 15 -4 3 11 -12 15 -12 16 5 10
16 -6 17 -5 6 8 -11 13 -10 14 5 9 12 -5 16 -4 12 3 -7 11 20 28 36 24 5 -1 6
9 2 21 -5 20 -4 21 5 5 12 -19 4 -41 -12 -31 -6 4 -6 -2 1 -15 14 -26 19 -27
17 -3 0 11 6 16 17 16 14 -2 15 1 6 12 -10 12 -8 13 13 5 23 -9 25 -7 21 10
-3 10 -10 19 -15 19 -5 0 -6 -5 -2 -12 5 -7 3 -8 -5 -3 -10 5 -10 10 -1 19 8
8 14 7 23 -5 11 -14 14 -14 25 -2 11 11 17 12 30 1 10 -7 6 0 -8 16 l-25 29
28 -18 c24 -16 27 -16 27 -1 0 9 5 16 11 16 5 0 8 -4 4 -9 -3 -5 -1 -12 4 -15
5 -4 8 5 6 19 -1 14 0 23 3 20 3 -2 11 0 18 6 9 7 19 7 32 0 14 -7 19 -7 19 4
0 8 -4 12 -9 9 -4 -3 -5 3 -1 12 5 14 8 12 20 -10 17 -33 26 -34 13 -2 -11 30
-4 37 24 26 18 -6 26 -3 41 16 15 20 20 22 33 12 13 -11 15 -10 9 5 -5 12 -3
16 5 11 8 -5 9 -1 4 12 -6 15 -5 17 5 7 18 -18 32 -16 25 2 -3 8 0 14 7 12 7
-1 11 3 10 10 -2 7 6 10 18 8 11 -2 22 2 26 11 4 12 8 12 20 -3 12 -14 14 -15
10 -2 -3 9 -1 22 4 30 6 10 9 10 9 2 0 -7 7 -13 16 -13 9 0 12 5 8 13 -6 10
-4 10 7 0 18 -18 34 -16 20 1 -9 11 -9 16 1 22 7 4 10 4 6 -1 -9 -9 30 -40 39
-31 4 3 0 6 -8 6 -12 0 -11 2 1 11 13 9 12 10 -2 5 -10 -3 -18 -1 -18 4 0 6 5
10 11 10 5 0 8 4 5 8 -3 5 1 9 9 9 8 0 12 -4 9 -9 -3 -4 0 -8 5 -8 6 0 11 5
11 11 0 5 5 7 10 4 6 -3 10 -2 10 3 0 6 10 8 23 5 12 -3 18 -1 12 4 -13 11
-17 33 -6 33 5 0 11 -7 15 -15 3 -8 11 -15 18 -15 10 0 10 2 -1 9 -10 7 -10
10 -1 16 7 4 16 1 21 -6 5 -8 9 -9 9 -4 0 6 -6 17 -12 24 -11 11 -10 13 0 7
18 -10 69 -18 57 -9 -16 12 -15 42 1 36 8 -3 11 -10 7 -17 -3 -6 0 -5 8 2 12
11 12 14 -1 22 -12 7 -10 9 7 7 12 0 20 -4 18 -7 -2 -3 5 -6 15 -6 15 0 17 4
8 19 -7 14 -7 17 1 13 6 -4 14 0 17 8 3 9 11 16 17 16 5 0 2 -9 -7 -19 -12
-13 -14 -21 -6 -26 6 -4 9 -1 8 7 -2 7 4 13 12 13 22 1 41 15 35 26 -3 5 1 6
9 3 9 -3 13 -11 9 -17 -4 -6 -1 -7 6 -3 9 6 8 13 -5 27 -17 19 -17 20 1 13 12
-5 16 -4 11 4 -3 6 -2 13 3 17 6 3 8 -3 6 -15 -2 -11 1 -23 7 -26 7 -4 8 -2 4
4 -7 12 1 15 34 15 9 0 17 8 17 18 1 11 -3 19 -8 19 -6 0 -7 5 -3 11 4 8 12 3
21 -12 13 -22 14 -22 10 -3 -4 19 0 21 41 18 28 -1 40 1 32 6 -8 5 -17 7 -21
4 -4 -2 -11 1 -15 7 -4 8 -3 9 5 5 6 -4 14 0 17 9 6 14 8 14 21 -2 8 -10 11
-12 7 -4 -5 10 -1 12 17 6 20 -5 21 -4 9 5 -12 10 -11 11 8 7 15 -4 22 0 22
10 0 8 5 11 10 8 6 -3 10 -2 10 4 0 5 -6 12 -12 15 -7 3 -1 3 14 1 18 -2 31 2
38 13 9 14 10 12 5 -8 -4 -14 -3 -20 2 -14 4 6 15 10 23 9 10 -2 16 5 16 17 0
18 -1 18 -13 2 -7 -10 -13 -13 -13 -8 0 22 23 34 39 21 12 -9 13 -9 7 1 -18
29 18 40 41 12z m933 16 c0 -3 -4 -8 -10 -11 -5 -3 -10 -1 -10 4 0 6 5 11 10
11 6 0 10 -2 10 -4z m-1770 -88 c-25 -9 -36 -5 -26 10 3 6 16 8 28 4 l22 -5
-24 -9z m1154 -64 c3 -8 2 -12 -4 -9 -6 3 -10 10 -10 16 0 14 7 11 14 -7z
m-2284 -8 c0 -2 -7 -9 -15 -16 -13 -11 -14 -10 -9 4 5 14 24 23 24 12z m1630
-10 c0 -3 -4 -8 -10 -11 -5 -3 -10 -1 -10 4 0 6 5 11 10 11 6 0 10 -2 10 -4z
m-765 -36 c3 -5 1 -10 -4 -10 -6 0 -11 5 -11 10 0 6 2 10 4 10 3 0 8 -4 11
-10z m-1070 -40 c3 -5 1 -10 -4 -10 -6 0 -11 5 -11 10 0 6 2 10 4 10 3 0 8 -4
11 -10z m30 1 c3 -5 2 -12 -3 -15 -5 -3 -9 1 -9 9 0 17 3 19 12 6z m3410 -11
c-3 -5 -14 -10 -23 -9 -14 0 -13 2 3 9 27 11 27 11 20 0z m-1855 -35 c0 -12
-19 -12 -23 0 -4 9 -1 12 9 8 7 -3 14 -7 14 -8z m-1680 1 c0 -2 -8 -10 -17
-17 -16 -13 -17 -12 -4 4 13 16 21 21 21 13z m943 -19 c3 -7 -3 -13 -14 -13
-13 0 -15 3 -7 13 6 7 12 13 13 13 2 0 5 -6 8 -13z m677 3 c0 -5 -2 -10 -4
-10 -3 0 -8 5 -11 10 -3 6 -1 10 4 10 6 0 11 -4 11 -10z m1898 -25 c-3 -3 -9
2 -12 12 -6 14 -5 15 5 6 7 -7 10 -15 7 -18z m-1043 -23 c-3 -3 -11 0 -18 7
-9 10 -8 11 6 5 10 -3 15 -9 12 -12z m-60 -12 c3 -5 1 -10 -4 -10 -6 0 -11 5
-11 10 0 6 2 10 4 10 3 0 8 -4 11 -10z m-2420 -30 c3 -6 -1 -7 -9 -4 -18 7
-21 14 -7 14 6 0 13 -4 16 -10z m832 -12 c-3 -8 -6 -5 -6 6 -1 11 2 17 5 13 3
-3 4 -12 1 -19z m-827 -38 c0 -5 -2 -10 -4 -10 -3 0 -8 5 -11 10 -3 6 -1 10 4
10 6 0 11 -4 11 -10z m-3 -26 c-3 -3 -12 -4 -19 -1 -8 3 -5 6 6 6 11 1 17 -2
13 -5z m663 -14 c0 -5 -2 -10 -4 -10 -3 0 -8 5 -11 10 -3 6 -1 10 4 10 6 0 11
-4 11 -10z m573 -15 c-3 -9 -8 -14 -10 -11 -3 3 -2 9 2 15 9 16 15 13 8 -4z
m932 3 c3 -3 -5 -5 -17 -4 -14 1 -22 -4 -20 -12 1 -8 -2 -11 -8 -7 -8 5 -8 11
0 20 11 13 34 15 45 3z m-2170 -29 c-4 -5 -12 -9 -18 -8 -9 0 -8 2 1 6 6 2 9
10 6 15 -4 7 -2 8 5 4 6 -4 9 -12 6 -17z m2096 -6 c13 -16 12 -17 -3 -4 -17
13 -22 21 -14 21 2 0 10 -8 17 -17z m-1601 -27 c0 -2 -8 -10 -17 -17 -16 -13
-17 -12 -4 4 13 16 21 21 21 13z m3030 -28 c0 -4 -4 -8 -9 -8 -6 0 -12 4 -15
8 -3 5 1 9 9 9 8 0 15 -4 15 -9z m-3523 -4 c-3 -3 -12 -4 -19 -1 -8 3 -5 6 6
6 11 1 17 -2 13 -5z m-1 -79 c0 -14 -4 -25 -8 -25 -6 0 -5 25 1 48 3 10 7 -2
7 -23z m447 -39 c4 -10 1 -13 -8 -9 -8 3 -12 9 -9 14 7 12 11 11 17 -5z m-448
-44 c-1 -9 2 -25 6 -34 11 -21 -8 -35 -24 -19 -9 9 -8 11 6 6 21 -9 22 -1 1
19 -8 9 -11 16 -5 16 5 0 8 9 6 20 -2 11 0 18 5 15 4 -3 7 -13 5 -23z m1650
18 c-3 -5 -1 -10 6 -10 7 0 10 -3 6 -6 -9 -9 -28 6 -22 17 4 5 8 9 11 9 3 0 2
-4 -1 -10z m-1650 -138 c-3 -3 -11 0 -18 7 -9 10 -8 11 6 5 10 -3 15 -9 12
-12z m449 3 c-4 -8 -11 -12 -16 -9 -6 4 -5 10 3 15 19 12 19 11 13 -6z m383
-5 c1 -11 -3 -20 -8 -20 -6 0 -7 5 -4 10 3 6 0 10 -7 10 -9 0 -9 3 2 10 8 5
15 10 15 10 1 0 1 -9 2 -20z m2163 -19 c0 7 3 9 6 6 4 -4 1 -13 -5 -21 -9 -11
-9 -16 0 -22 8 -4 9 -3 5 4 -8 13 4 15 28 6 9 -3 16 -11 16 -16 0 -7 -5 -6
-13 1 -10 8 -14 7 -14 -4 0 -7 3 -13 6 -12 3 1 17 -6 31 -16 13 -9 19 -17 13
-17 -7 0 -15 5 -18 10 -3 6 -11 10 -17 10 -6 0 1 -11 17 -24 20 -17 24 -26 15
-31 -9 -6 -11 -4 -5 6 5 8 4 10 0 6 -13 -12 -15 -36 -3 -44 7 -4 8 -1 3 7 -6
9 -4 11 4 5 9 -5 9 -11 3 -17 -6 -6 -8 -18 -5 -27 4 -13 3 -14 -5 -1 -6 8 -8
18 -6 22 9 15 -3 8 -17 -9 -10 -11 -10 -14 -1 -9 7 4 12 1 12 -9 0 -9 -5 -13
-10 -10 -6 4 -9 1 -8 -7 2 -7 -3 -12 -10 -10 -8 1 -11 -2 -7 -8 3 -6 12 -7 18
-3 16 10 41 13 32 5 -4 -4 -11 -8 -16 -8 -5 -1 -12 -2 -15 -3 -4 0 -1 -8 6
-17 11 -12 11 -15 -1 -12 -9 2 -13 -4 -11 -17 2 -11 -1 -16 -5 -10 -4 6 -15
11 -23 13 -10 3 -9 -3 5 -19 l20 -22 -23 12 c-22 12 -23 11 -18 -7 5 -14 0
-25 -16 -36 -13 -9 -23 -22 -23 -29 0 -6 -12 -12 -27 -12 -15 1 -26 -2 -26 -5
0 -3 0 -13 -1 -24 -1 -15 -4 -16 -16 -6 -13 11 -14 10 -10 -3 4 -8 1 -18 -6
-23 -8 -4 -10 -3 -5 4 4 7 2 12 -3 12 -6 0 -11 -4 -11 -10 0 -5 -6 -10 -12
-10 -7 0 -20 -5 -28 -10 -13 -9 -13 -11 0 -20 12 -9 12 -10 -5 -8 -12 2 -19
-2 -17 -10 1 -8 -2 -11 -8 -7 -6 3 -7 11 -4 17 5 7 2 8 -5 4 -7 -5 -10 -13 -8
-20 5 -13 -31 -14 -54 -1 -7 4 -11 5 -7 1 9 -10 -14 -36 -25 -29 -5 3 -11 -4
-14 -16 -3 -11 -9 -18 -14 -15 -5 3 -6 11 -2 17 5 9 3 9 -8 0 -8 -6 -18 -11
-24 -10 -5 1 -11 -8 -13 -20 -2 -13 -6 -23 -10 -24 -4 0 -15 -2 -24 -4 -10 -2
-18 0 -18 4 0 4 -9 7 -21 7 -19 0 -19 -1 -3 -13 15 -11 16 -15 4 -26 -8 -7
-10 -8 -7 -1 4 7 0 14 -8 17 -10 4 -12 1 -8 -10 5 -13 3 -14 -18 -3 l-24 13
20 -23 c11 -13 13 -20 5 -15 -27 16 -52 13 -47 -5 3 -14 -2 -17 -24 -15 -18 2
-26 -1 -22 -8 4 -7 0 -8 -11 -4 -14 5 -17 3 -12 -8 3 -8 1 -15 -4 -15 -6 0
-10 5 -10 10 0 6 -5 10 -11 10 -5 0 -7 -5 -3 -12 5 -8 2 -9 -11 -4 -16 6 -16
4 -4 -10 13 -16 12 -16 -11 -4 -24 13 -24 12 -10 -5 14 -17 14 -17 -6 -7 -12
6 -26 7 -34 2 -8 -5 -18 -6 -24 -3 -5 3 -6 1 -2 -5 5 -9 13 -9 28 -1 12 7 18
7 14 1 -3 -6 -3 -12 1 -15 5 -2 2 -2 -5 0 -7 1 -23 -2 -34 -8 -11 -6 -18 -7
-15 -2 4 5 0 10 -8 10 -8 0 -12 -4 -9 -9 11 -17 -7 -29 -24 -16 -13 11 -14 11
-7 -1 6 -11 3 -13 -16 -8 l-24 6 24 -20 c26 -21 24 -23 -13 -9 -21 8 -24 7
-20 -8 5 -15 4 -15 -6 1 -12 19 -36 24 -24 5 4 -7 3 -8 -4 -4 -13 8 -12 33 2
54 7 11 4 12 -10 4 -17 -9 -19 -6 -19 29 0 29 3 38 14 34 12 -5 12 -3 0 11 -7
9 -13 27 -12 40 1 13 1 33 2 45 1 11 5 18 9 15 5 -3 9 1 9 9 0 8 -4 12 -9 9
-4 -3 -8 2 -8 10 0 9 5 16 12 16 6 0 8 3 5 6 -4 4 -13 1 -22 -6 -24 -20 -17 0
8 22 12 11 16 17 10 13 -7 -3 -13 -3 -14 2 0 4 -2 18 -3 30 -1 12 3 24 11 27
7 3 10 12 7 20 -3 8 0 17 6 21 8 5 7 11 -2 23 -10 12 -10 14 0 8 6 -4 12 -2
12 3 0 6 4 11 10 11 5 0 7 -8 4 -17 -5 -15 -4 -16 5 -3 6 8 8 24 5 35 -4 15
-3 16 4 6 7 -9 12 -10 16 -2 4 6 13 11 19 11 7 0 6 -4 -3 -10 -8 -5 -10 -10
-4 -10 5 0 15 5 22 12 9 9 12 9 12 -2 0 -7 3 -10 6 -7 4 4 1 14 -7 24 -8 9 -9
14 -2 10 6 -4 19 0 27 9 9 8 16 12 16 7 0 -5 -5 -14 -12 -21 -7 -7 -9 -12 -5
-12 8 0 47 38 47 46 0 3 -6 2 -12 -2 -7 -4 -10 -3 -5 1 4 5 18 10 30 12 18 2
19 1 7 -8 -13 -9 -13 -10 0 -6 8 2 14 12 13 21 0 10 2 15 5 12 3 -3 11 -1 19
5 7 6 13 8 13 3 0 -5 5 -2 11 6 9 13 10 13 6 0 -2 -8 -10 -14 -17 -12 -11 3
-11 0 0 -12 15 -19 21 -20 18 -3 -2 6 4 11 13 11 9 -1 16 6 15 15 -1 10 6 15
17 13 10 -2 17 3 17 12 0 8 5 18 12 22 8 5 9 2 5 -9 -3 -9 -1 -19 5 -23 6 -4
8 -3 5 3 -4 6 1 17 10 24 9 8 14 9 10 3 -3 -6 0 -11 7 -11 8 0 12 6 10 12 -5
13 20 38 42 41 8 1 14 -2 14 -7 0 -5 4 -9 10 -9 5 0 7 8 4 18 -5 14 -3 14 10
-2 18 -22 21 -14 6 14 -7 13 -7 21 2 26 6 4 8 3 5 -3 -4 -6 1 -17 10 -24 12
-10 14 -10 9 -1 -4 7 -2 12 4 12 6 0 8 5 4 13 -5 7 0 6 11 -3 14 -11 17 -12
11 -1 -6 9 -5 12 5 9 7 -2 25 6 39 19 26 24 67 33 54 11 -5 -9 -2 -9 9 1 19
15 23 26 5 15 -7 -5 -8 -3 -4 5 5 7 14 10 22 7 7 -3 16 -1 19 4 3 4 0 10 -7
12 -7 3 -2 7 10 10 12 4 20 2 16 -3 -3 -5 0 -9 5 -9 6 0 11 4 11 10 0 5 7 6
17 3 12 -5 14 -3 8 8 -7 11 -5 11 10 -1 11 -9 16 -10 11 -2 -4 7 -2 12 4 12 6
0 9 4 5 9 -3 6 8 8 25 6 17 -2 28 -1 26 4 -3 4 9 5 26 3 23 -3 29 -1 23 8 -4
7 4 4 19 -5 19 -13 26 -14 26 -4z m-2990 -33 c0 -4 -4 -8 -9 -8 -6 0 -12 4
-15 8 -3 5 1 9 9 9 8 0 15 -4 15 -9z m431 -31 c-10 -9 -11 -8 -5 6 3 10 9 15
12 12 3 -3 0 -11 -7 -18z m-435 -34 c-2 -9 -9 -19 -17 -21 -9 -2 -10 -1 -3 5
6 4 10 16 8 26 -1 9 1 15 6 12 5 -3 7 -13 6 -22z m449 7 c3 -6 -1 -7 -9 -4
-18 7 -21 14 -7 14 6 0 13 -4 16 -10z m369 -55 c-10 -8 -23 -15 -28 -15 -6 0
-1 7 10 15 10 8 23 15 28 15 6 0 1 -7 -10 -15z m1 -25 c-3 -5 -12 -10 -18 -10
-7 0 -6 4 3 10 19 12 23 12 15 0z m-818 -6 c-3 -3 -12 -4 -19 -1 -8 3 -5 6 6
6 11 1 17 -2 13 -5z m827 -75 c-10 -16 -23 -9 -21 10 1 15 4 17 14 9 7 -5 10
-14 7 -19z m2546 -63 c0 -11 -19 -15 -25 -6 -3 5 1 10 9 10 9 0 16 -2 16 -4z
m-42 -41 c-3 -3 -9 2 -12 12 -6 14 -5 15 5 6 7 -7 10 -15 7 -18z m-3331 -21
c-3 -3 -12 -4 -19 -1 -8 3 -5 6 6 6 11 1 17 -2 13 -5z m3290 -12 c-10 -10 -15
-21 -12 -24 3 -3 -1 -8 -10 -12 -11 -4 -14 -2 -9 7 10 18 36 47 42 47 3 0 -2
-8 -11 -18z m-2463 -103 c-10 -16 -23 -9 -21 10 1 15 4 17 14 9 7 -5 10 -14 7
-19z m2490 -69 c-6 -6 -10 -3 -10 10 0 13 4 16 10 10 7 -7 7 -13 0 -20z m-694
-15 c0 -2 -7 -8 -15 -15 -12 -10 -15 -10 -15 2 0 8 7 15 15 15 8 0 15 -1 15
-2z m-2624 -69 c1 -7 -4 -13 -12 -13 -9 0 -11 4 -4 12 5 7 8 15 5 18 -3 4 -2
5 2 2 4 -3 8 -11 9 -19z m437 -36 c8 0 8 -3 -1 -12 -8 -8 -9 -15 0 -25 8 -10
8 -12 -4 -8 -9 4 -14 20 -14 43 -1 20 1 29 3 20 3 -10 10 -18 16 -18z m382 10
c3 -5 1 -10 -4 -10 -6 0 -11 5 -11 10 0 6 2 10 4 10 3 0 8 -4 11 -10z m2675
-35 c0 -2 -6 -7 -12 -11 -7 -4 -10 -4 -6 1 4 4 0 14 -10 22 -15 13 -15 13 6 3
12 -6 22 -13 22 -15z m-2693 -47 c-3 -8 -6 -5 -6 6 -1 11 2 17 5 13 3 -3 4
-12 1 -19z m-787 -38 c0 -5 -9 -8 -19 -7 -15 1 -17 4 -9 14 11 13 28 9 28 -7z
m2053 -15 c-3 -9 -8 -14 -10 -11 -3 3 -2 9 2 15 9 16 15 13 8 -4z m-2056 -11
c-3 -3 -12 -4 -19 -1 -8 3 -5 6 6 6 11 1 17 -2 13 -5z m808 -14 c3 -5 1 -10
-4 -10 -6 0 -11 5 -11 10 0 6 2 10 4 10 3 0 8 -4 11 -10z m-18 -82 c-3 -8 -6
-5 -6 6 -1 11 2 17 5 13 3 -3 4 -12 1 -19z m2069 3 c-7 -11 14 -20 31 -13 7 2
11 8 8 12 -7 11 22 6 32 -5 4 -4 2 -5 -6 0 -9 5 -12 4 -7 -3 5 -9 14 -8 31 4
16 10 25 12 30 4 3 -6 11 -7 17 -4 7 4 8 2 4 -5 -4 -6 -13 -8 -19 -5 -7 4 -8
3 -4 -1 11 -12 37 -15 37 -4 0 5 8 1 18 -8 20 -20 8 -44 -18 -36 -13 4 -13 3
-1 -5 8 -6 20 -8 27 -5 16 6 28 -14 13 -23 -8 -5 -9 -3 -4 7 5 8 4 10 0 6 -13
-11 -15 -38 -3 -31 6 4 8 -2 3 -16 -5 -16 -4 -20 5 -15 7 4 5 -6 -5 -24 -9
-17 -13 -36 -10 -41 3 -6 0 -10 -8 -10 -8 0 -20 -7 -27 -16 -8 -8 -9 -14 -4
-12 5 2 10 -1 11 -6 1 -5 7 -13 15 -18 9 -6 6 -7 -9 -3 -18 5 -27 0 -43 -27
-22 -37 -26 -53 -8 -42 7 5 8 3 3 -5 -4 -7 -16 -10 -27 -8 -19 5 -19 5 -2 -16
10 -12 12 -17 5 -10 -7 6 -20 9 -27 6 -20 -8 -17 -23 4 -17 15 5 15 4 1 -5 -9
-6 -26 -8 -38 -6 -19 3 -21 2 -11 -10 7 -8 9 -16 4 -16 -5 -1 -16 -2 -24 -3
-8 0 -14 -8 -14 -17 1 -12 -4 -15 -19 -11 -15 4 -18 2 -12 -9 7 -11 5 -11 -10
1 -17 14 -18 14 -6 -9 7 -13 8 -21 3 -17 -6 3 -12 3 -15 -1 -2 -5 -2 -2 0 5 1
8 -3 12 -9 9 -7 -2 -12 -11 -12 -20 1 -13 -2 -14 -16 -7 -25 13 -40 12 -17 -1
9 -6 15 -15 11 -20 -4 -6 -14 -3 -27 8 -11 10 -17 12 -13 6 4 -7 2 -13 -4 -13
-6 0 -8 -5 -4 -11 4 -8 0 -9 -15 -4 -17 5 -20 3 -14 -12 6 -15 4 -16 -9 -5
-13 10 -18 10 -24 1 -4 -8 -3 -9 4 -5 8 5 10 2 6 -8 -5 -14 -8 -13 -23 2 -9
10 -12 11 -6 4 8 -12 5 -14 -15 -7 -22 6 -23 5 -10 -6 8 -8 13 -13 11 -12 -2
2 -10 -2 -18 -8 -7 -6 -22 -9 -33 -6 -11 3 -23 1 -26 -4 -3 -6 -14 -7 -24 -4
-10 3 -21 1 -25 -4 -4 -7 0 -8 11 -4 14 5 15 3 6 -14 -6 -11 -8 -24 -4 -28 4
-5 1 -5 -6 -1 -7 4 -10 12 -7 17 3 5 -2 6 -11 2 -13 -5 -15 -3 -9 8 5 8 -4 3
-18 -10 -15 -14 -27 -21 -27 -17 0 4 -5 4 -10 1 -8 -5 -7 -11 1 -21 6 -8 9
-17 5 -21 -3 -3 -6 0 -6 7 0 9 -10 5 -26 -11 -14 -13 -31 -24 -37 -25 -33 -3
-38 -5 -33 -12 2 -4 -4 -8 -14 -8 -11 0 -16 6 -13 16 3 9 0 8 -7 -4 -10 -14
-10 -20 1 -27 10 -6 8 -8 -8 -6 -17 1 -20 5 -12 18 6 12 5 20 -3 25 -6 4 -8 3
-5 -3 4 -5 -2 -19 -13 -30 -10 -12 -16 -24 -12 -28 4 -3 -5 -2 -19 3 -20 8
-26 7 -26 -4 0 -9 6 -13 16 -9 13 5 14 4 3 -7 -11 -11 -16 -9 -29 7 -15 20
-15 20 -11 0 4 -15 0 -21 -13 -22 -11 -1 -19 2 -19 6 0 4 -7 8 -15 8 -12 0
-12 -3 -2 -15 10 -13 9 -14 -9 -4 -12 6 -23 9 -26 7 -3 -3 -5 1 -6 8 0 6 -3
24 -5 40 -2 15 0 27 5 27 5 0 6 5 2 12 -4 6 -8 55 -8 107 -1 71 3 99 13 107
11 9 12 12 1 19 -9 6 -11 4 -5 -5 5 -9 4 -11 -4 -6 -9 6 -8 13 3 31 12 17 13
26 4 31 -6 4 -8 3 -5 -3 3 -5 0 -10 -7 -10 -7 0 -13 6 -13 13 0 7 3 13 6 12 3
0 13 0 21 2 11 1 9 4 -5 10 -19 8 -19 9 -1 9 19 1 19 2 2 14 -18 13 -18 14 0
14 11 0 22 -4 25 -9 3 -5 9 -1 11 10 4 16 2 19 -11 15 -13 -4 -14 -3 -1 5 8 6
18 8 24 5 5 -4 7 1 3 10 -4 11 -2 14 8 10 8 -3 12 -9 9 -14 -3 -5 2 -6 11 -3
9 4 14 12 12 18 -3 7 3 13 14 13 12 1 16 -3 12 -15 -4 -13 -3 -14 5 -3 5 7 16
18 23 23 11 8 10 8 -4 4 -11 -3 -16 -2 -12 4 3 6 17 10 31 10 13 0 24 6 24 13
0 9 3 9 9 -1 6 -10 10 -8 14 10 4 14 18 30 32 36 20 9 25 9 19 0 -5 -7 -2 -9
9 -5 9 3 18 1 21 -6 4 -7 4 -2 2 10 -2 13 1 21 8 20 6 -1 10 7 8 18 -2 17 -1
17 8 5 9 -13 11 -13 20 0 6 9 10 10 10 3 0 -7 -7 -16 -16 -21 -15 -8 -14 -10
2 -16 10 -4 15 -4 12 0 -4 3 0 13 8 22 14 13 17 13 25 1 5 -8 9 -9 9 -4 0 6
-6 17 -12 24 -11 11 -9 11 9 2 30 -15 41 -14 18 3 -18 13 -18 14 6 25 22 11
23 11 5 -3 -17 -14 -16 -15 15 -14 19 1 28 3 22 5 -7 3 -13 11 -13 20 0 12 2
12 16 -1 8 -9 18 -16 22 -16 3 0 1 5 -6 12 -13 13 2 38 23 38 8 0 15 3 18 8 2
4 3 2 1 -4 -1 -7 8 -11 21 -10 13 0 21 4 19 8 -3 4 2 20 10 35 8 16 15 24 16
20 0 -5 -4 -16 -9 -26 -7 -13 -6 -18 4 -18 8 0 12 4 9 8 -2 4 2 11 9 16 8 4
17 15 20 23 4 12 6 11 6 -2 1 -10 4 -18 9 -18 10 0 39 20 28 20 -5 0 -3 6 3
13 6 8 7 18 3 22 -4 5 -2 5 5 1 7 -4 9 -14 6 -23 -4 -11 -3 -14 5 -9 7 4 12
15 12 24 0 15 2 15 10 2 8 -13 12 -12 29 7 11 11 17 24 13 29 -4 4 -1 4 6 0
10 -6 10 -11 2 -21 -9 -11 -7 -12 10 -8 13 4 19 11 16 20 -3 8 -2 11 3 8 5 -3
12 -1 16 5 3 5 8 10 11 10 3 0 3 -4 0 -9z m-2051 -81 c3 -5 1 -10 -4 -10 -6 0
-11 5 -11 10 0 6 2 10 4 10 3 0 8 -4 11 -10z m2700 -9 c-3 -5 -1 -12 5 -16 12
-7 4 -25 -11 -25 -5 0 -7 10 -5 23 6 29 5 27 12 27 3 0 3 -4 -1 -9z m-2280
-31 c3 -5 1 -10 -4 -10 -6 0 -11 5 -11 10 0 6 2 10 4 10 3 0 8 -4 11 -10z
m-808 -42 c-3 -8 -6 -5 -6 6 -1 11 2 17 5 13 3 -3 4 -12 1 -19z m2628 -78 c3
-5 1 -10 -4 -10 -6 0 -11 5 -11 10 0 6 2 10 4 10 3 0 8 -4 11 -10z m-2229 -55
c1 -8 -2 -15 -7 -15 -6 0 -9 8 -7 18 2 10 -2 16 -10 14 -8 -1 -11 2 -7 9 9 13
28 -3 31 -26z m2186 -3 c-7 -2 -9 -9 -6 -14 5 -7 2 -8 -6 -3 -10 6 -12 4 -6
-11 5 -14 4 -16 -4 -8 -15 15 5 58 23 47 8 -5 8 -8 -1 -11z m511 -87 c-3 -9
-8 -14 -10 -11 -3 3 -2 9 2 15 9 16 15 13 8 -4z m-3800 -170 c-3 -9 -8 -14
-10 -11 -3 3 -2 9 2 15 9 16 15 13 8 -4z m2823 -67 c4 -7 3 -10 -1 -5 -5 4
-17 0 -27 -10 -10 -9 -18 -13 -18 -8 0 6 29 33 37 35 1 0 5 -6 9 -12z m-92
-49 c-3 -5 -10 -7 -15 -4 -5 4 -9 1 -9 -6 0 -7 -3 -9 -6 -6 -9 9 16 38 27 31
5 -3 7 -10 3 -15z m-2416 -24 c0 -24 -8 -31 -21 -19 -4 5 13 44 19 44 1 0 2
-11 2 -25z m507 -5 c-3 -5 -11 -10 -16 -10 -6 0 -7 5 -4 10 3 6 11 10 16 10 6
0 7 -4 4 -10z m-31 -26 c3 -8 2 -12 -4 -9 -6 3 -10 10 -10 16 0 14 7 11 14 -7z
m166 12 c0 -3 -4 -8 -10 -11 -5 -3 -10 -1 -10 4 0 6 5 11 10 11 6 0 10 -2 10
-4z m31 -99 c-10 -9 -11 -8 -5 6 3 10 9 15 12 12 3 -3 0 -11 -7 -18z m2214
-17 c3 -6 -1 -7 -9 -4 -18 7 -21 14 -7 14 6 0 13 -4 16 -10z m-160 -80 c3 -6
-1 -7 -9 -4 -18 7 -21 14 -7 14 6 0 13 -4 16 -10z m-1954 -93 c-10 -9 -11 -8
-5 6 3 10 9 15 12 12 3 -3 0 -11 -7 -18z m1554 -97 c3 -6 -1 -7 -9 -4 -18 7
-21 14 -7 14 6 0 13 -4 16 -10z m-1399 -33 c12 4 15 3 10 -5 -10 -16 -28 -15
-52 4 -18 15 -18 15 3 5 12 -6 29 -8 39 -4z m1314 -7 c0 -5 -5 -10 -11 -10 -5
0 -7 5 -4 10 3 6 8 10 11 10 2 0 4 -4 4 -10z m-39 -33 c-10 -9 -11 -8 -5 6 3
10 9 15 12 12 3 -3 0 -11 -7 -18z m-1168 -38 c5 -3 2 -9 -5 -12 -9 -3 -14 3
-15 15 -1 11 1 16 5 12 4 -5 11 -12 15 -15z m1035 -25 c-12 -12 -17 -13 -23
-3 -5 8 -4 10 4 5 6 -4 14 0 17 9 4 9 9 13 12 10 3 -3 -1 -13 -10 -21z m-991
-11 c0 -9 -4 -10 -14 -2 -7 6 -13 12 -13 14 0 1 6 2 13 2 8 0 14 -6 14 -14z
m143 -81 c0 -12 -3 -12 -15 -2 -8 7 -15 13 -15 15 0 1 7 2 15 2 8 0 15 -7 15
-15z m653 -26 c-3 -4 -9 -2 -14 5 -13 22 -11 31 5 17 8 -7 12 -17 9 -22z m-68
-5 c3 -5 2 -12 -3 -15 -5 -3 -9 1 -9 9 0 17 3 19 12 6z"/>
<path d="M2397 4197 c-3 -8 1 -14 8 -14 7 0 11 6 8 14 -3 7 -6 13 -8 13 -2 0
-5 -6 -8 -13z"/>
<path d="M2730 4146 c0 -4 7 -14 15 -22 8 -9 15 -11 15 -6 0 5 -7 15 -15 22
-8 7 -15 9 -15 6z"/>
<path d="M2125 4070 c-4 -6 -11 -7 -17 -4 -7 4 -8 2 -4 -5 4 -6 11 -9 16 -6 4
3 10 0 12 -7 3 -8 7 -6 11 5 7 18 -8 33 -18 17z"/>
<path d="M1920 3970 c-13 -10 -29 -16 -34 -13 -5 3 -6 1 -2 -5 7 -12 4 -13
-34 -16 -27 -2 -46 -21 -29 -31 8 -5 10 -4 5 3 -10 16 7 15 23 0 10 -11 11
-10 6 4 -5 13 -1 16 20 14 14 -2 23 -1 21 2 -3 3 4 13 16 24 15 12 24 15 28 7
5 -7 9 -5 13 5 9 24 -6 26 -33 6z"/>
<path d="M2801 3954 c6 -7 16 -11 21 -8 11 7 3 17 -18 20 -12 2 -13 -1 -3 -12z"/>
<path d="M1720 3865 c-7 -9 -8 -15 -2 -15 5 0 12 7 16 15 3 8 4 15 2 15 -2 0
-9 -7 -16 -15z"/>
<path d="M1616 3807 c3 -10 9 -15 12 -12 3 3 0 11 -7 18 -10 9 -11 8 -5 -6z"/>
<path d="M2278 3703 c6 -3 9 -9 6 -15 -4 -6 2 -5 15 1 28 15 27 19 -6 18 -16
0 -22 -2 -15 -4z"/>
<path d="M1885 3521 c-3 -5 -2 -12 3 -15 5 -3 9 1 9 9 0 17 -3 19 -12 6z"/>
<path d="M1699 3433 c-1 -5 -1 -12 0 -16 1 -4 -6 -10 -14 -13 -8 -4 -15 -10
-15 -16 0 -5 6 -6 13 -1 6 4 15 8 20 9 4 1 10 2 13 3 4 0 1 7 -5 14 -6 8 -8
17 -4 20 3 4 3 7 0 7 -4 0 -8 -3 -8 -7z"/>
<path d="M1505 3340 c-3 -6 1 -7 9 -4 18 7 21 14 7 14 -6 0 -13 -4 -16 -10z"/>
<path d="M1454 3049 c-4 -7 -2 -15 4 -17 7 -2 9 -9 6 -14 -4 -6 -2 -8 4 -5 10
7 11 32 0 42 -3 4 -9 1 -14 -6z"/>
<path d="M1447 2174 c-4 -4 -3 -12 0 -18 13 -19 12 -40 0 -55 -10 -12 -9 -13
12 -2 17 9 20 16 12 24 -7 7 -7 15 -1 22 11 13 -11 40 -23 29z"/>
<path d="M1126 1898 c-8 -26 -3 -46 12 -41 10 4 11 8 1 13 -6 5 -9 15 -6 24 4
9 4 16 1 16 -2 0 -6 -6 -8 -12z"/>
<path d="M1190 1811 c0 -5 7 -12 16 -15 14 -5 15 -4 4 9 -14 17 -20 19 -20 6z"/>
<path d="M1390 1780 c-13 -8 -12 -10 3 -10 9 0 17 5 17 10 0 12 -1 12 -20 0z"/>
<path d="M3287 3825 c3 -8 9 -12 14 -9 12 7 11 11 -5 17 -10 4 -13 1 -9 -8z"/>
<path d="M3548 3713 c6 -2 9 -10 6 -15 -4 -7 -2 -8 5 -4 13 9 5 26 -12 25 -9
0 -8 -2 1 -6z"/>
<path d="M2467 3419 c7 -7 15 -10 18 -7 3 3 -2 9 -12 12 -14 6 -15 5 -6 -5z"/>
<path d="M2390 3385 c-11 -13 -10 -14 4 -9 9 3 16 10 16 15 0 13 -6 11 -20 -6z"/>
<path d="M2227 3299 c7 -7 15 -10 18 -7 3 3 -2 9 -12 12 -14 6 -15 5 -6 -5z"/>
<path d="M3036 3298 c3 -5 10 -6 15 -3 13 9 11 12 -6 12 -8 0 -12 -4 -9 -9z"/>
<path d="M2145 3261 c-3 -5 -2 -12 3 -15 5 -3 9 1 9 9 0 17 -3 19 -12 6z"/>
<path d="M1867 3069 c7 -7 15 -10 18 -7 3 3 -2 9 -12 12 -14 6 -15 5 -6 -5z"/>
<path d="M1870 3039 c0 -5 5 -7 10 -4 6 3 10 8 10 11 0 2 -4 4 -10 4 -5 0 -10
-5 -10 -11z"/>
<path d="M2336 2938 c3 -4 11 -5 19 -1 21 7 19 12 -4 10 -11 0 -18 -5 -15 -9z"/>
<path d="M1875 2920 c3 -5 8 -10 11 -10 2 0 4 5 4 10 0 6 -5 10 -11 10 -5 0
-7 -4 -4 -10z"/>
<path d="M2275 2900 c-3 -5 -1 -10 4 -10 6 0 11 5 11 10 0 6 -2 10 -4 10 -3 0
-8 -4 -11 -10z"/>
<path d="M1874 2625 c1 -8 8 -21 16 -28 12 -10 12 -9 2 4 -6 9 -9 18 -6 21 3
3 1 9 -4 12 -6 3 -9 -1 -8 -9z"/>
<path d="M1866 2542 c-2 -4 4 -8 14 -8 10 0 16 4 14 8 -3 4 -9 8 -14 8 -5 0
-11 -4 -14 -8z"/>
<path d="M1874 2386 c1 -8 5 -18 8 -22 4 -3 5 1 4 10 -1 8 -5 18 -8 22 -4 3
-5 -1 -4 -10z"/>
<path d="M1879 2238 c-5 -18 -6 -38 -1 -34 7 8 12 36 6 36 -2 0 -4 -1 -5 -2z"/>
<path d="M1879 2078 c-5 -18 -6 -38 -1 -34 7 8 12 36 6 36 -2 0 -4 -1 -5 -2z"/>
<path d="M1920 1506 c0 -2 8 -10 18 -17 15 -13 16 -12 3 4 -13 16 -21 21 -21
13z"/>
<path d="M2025 1381 c-7 -12 12 -24 25 -16 11 7 4 25 -10 25 -5 0 -11 -4 -15
-9z"/>
<path d="M3907 2934 c-4 -4 -7 -12 -7 -18 0 -6 5 -4 10 4 9 13 11 13 21 0 9
-12 10 -12 7 -1 -5 17 -21 25 -31 15z"/>
<path d="M3713 2845 c-3 -9 -3 -18 -1 -21 3 -3 8 4 11 16 6 23 -1 27 -10 5z"/>
<path d="M3530 2765 c-9 -10 -9 -15 -1 -15 6 0 11 5 11 11 0 5 5 7 12 3 7 -4
8 -3 4 4 -9 15 -11 15 -26 -3z"/>
<path d="M3958 2563 c7 -3 16 -2 19 1 4 3 -2 6 -13 5 -11 0 -14 -3 -6 -6z"/>
<path d="M3610 2361 c0 -7 -5 -9 -12 -5 -7 5 -8 3 -3 -5 5 -9 10 -10 18 -2 6
6 8 14 4 18 -4 3 -7 1 -7 -6z"/>
<path d="M3440 2291 c0 -6 4 -13 10 -16 6 -3 7 1 4 9 -7 18 -14 21 -14 7z"/>
<path d="M4009 2023 c-13 -16 -12 -17 4 -4 16 13 21 21 13 21 -2 0 -10 -8 -17
-17z"/>
<path d="M4066 2002 c-3 -5 1 -9 9 -9 8 0 12 4 9 9 -3 4 -7 8 -9 8 -2 0 -6 -4
-9 -8z"/>
<path d="M3586 1891 c-3 -5 0 -11 7 -14 8 -3 14 1 14 9 0 16 -13 19 -21 5z"/>
<path d="M4083 1881 c0 -11 5 -18 9 -15 4 3 5 11 1 19 -7 21 -12 19 -10 -4z"/>
<path d="M3344 1768 c-5 -7 -2 -9 8 -5 9 3 22 0 29 -6 11 -10 11 -9 0 6 -16
20 -27 22 -37 5z"/>
<path d="M3330 1739 c0 -5 5 -7 10 -4 6 3 10 8 10 11 0 2 -4 4 -10 4 -5 0 -10
-5 -10 -11z"/>
<path d="M3590 1456 c0 -2 9 -6 20 -9 11 -3 18 -1 14 4 -5 9 -34 13 -34 5z"/>
<path d="M3115 1360 c-3 -5 -1 -10 4 -10 6 0 11 5 11 10 0 6 -2 10 -4 10 -3 0
-8 -4 -11 -10z"/>
<path d="M3400 1341 c-8 -6 -17 -8 -21 -6 -3 3 -15 -5 -25 -16 -16 -18 -16
-19 -1 -13 9 3 17 11 17 16 0 7 5 6 13 -1 11 -8 18 -6 32 9 19 21 11 27 -15
11z"/>
<path d="M3116 1247 c3 -10 9 -15 12 -12 3 3 0 11 -7 18 -10 9 -11 8 -5 -6z"/>
<path d="M2775 4601 c-3 -5 -2 -12 3 -15 5 -3 9 1 9 9 0 17 -3 19 -12 6z"/>
<path d="M2376 4551 c-3 -5 2 -15 12 -22 15 -12 16 -12 5 2 -7 9 -10 19 -6 22
3 4 4 7 0 7 -3 0 -8 -4 -11 -9z"/>
<path d="M2855 4540 c3 -5 8 -10 11 -10 2 0 4 5 4 10 0 6 -5 10 -11 10 -5 0
-7 -4 -4 -10z"/>
<path d="M2076 4391 c-4 -5 -2 -12 3 -15 5 -4 12 -2 15 3 4 5 2 12 -3 15 -5 4
-12 2 -15 -3z"/>
<path d="M3277 4335 c-4 -8 -3 -16 1 -19 4 -3 9 4 9 15 2 23 -3 25 -10 4z"/>
<path d="M1755 4230 c-3 -5 -1 -10 4 -10 6 0 11 5 11 10 0 6 -2 10 -4 10 -3 0
-8 -4 -11 -10z"/>
<path d="M1710 4189 c0 -5 5 -7 10 -4 6 3 10 8 10 11 0 2 -4 4 -10 4 -5 0 -10
-5 -10 -11z"/>
<path d="M3586 4173 c-6 -14 -5 -15 5 -6 7 7 10 15 7 18 -3 3 -9 -2 -12 -12z"/>
<path d="M3636 4167 c3 -10 9 -15 12 -12 3 3 0 11 -7 18 -10 9 -11 8 -5 -6z"/>
<path d="M3690 4122 c0 -5 7 -9 15 -9 8 0 12 4 9 9 -3 4 -9 8 -15 8 -5 0 -9
-4 -9 -8z"/>
<path d="M1336 4008 c3 -5 10 -6 15 -3 13 9 11 12 -6 12 -8 0 -12 -4 -9 -9z"/>
<path d="M3994 3958 c-4 -7 -3 -8 5 -4 6 4 20 2 29 -6 15 -12 16 -11 3 5 -16
20 -27 22 -37 5z"/>
<path d="M4070 3946 c0 -2 7 -7 16 -10 8 -3 12 -2 9 4 -6 10 -25 14 -25 6z"/>
<path d="M1175 3929 c-4 -6 -5 -12 -2 -15 2 -3 7 2 10 11 7 17 1 20 -8 4z"/>
<path d="M1064 3880 c2 -16 20 -14 24 2 3 10 2 10 -6 -1 -7 -9 -11 -10 -15 -2
-4 7 -5 8 -3 1z"/>
<path d="M4146 3878 c3 -4 9 -8 15 -8 5 0 9 4 9 8 0 5 -7 9 -15 9 -8 0 -12 -4
-9 -9z"/>
<path d="M885 3780 c3 -5 8 -10 11 -10 2 0 4 5 4 10 0 6 -5 10 -11 10 -5 0 -7
-4 -4 -10z"/>
<path d="M4595 3389 c-4 -6 -5 -12 -2 -15 2 -3 7 2 10 11 7 17 1 20 -8 4z"/>
<path d="M4570 3323 c1 -13 30 -48 30 -36 0 7 -5 15 -10 18 -6 4 -8 11 -5 16
4 5 1 9 -4 9 -6 0 -11 -3 -11 -7z"/>
<path d="M675 2840 c-3 -5 -2 -10 4 -10 5 0 13 5 16 10 3 6 2 10 -4 10 -5 0
-13 -4 -16 -10z"/>
<path d="M4394 2398 c-4 -7 -4 -10 1 -6 4 4 14 3 22 -4 11 -8 12 -7 7 6 -7 19
-20 21 -30 4z"/>
<path d="M4470 2359 c0 -5 5 -7 10 -4 6 3 10 8 10 11 0 2 -4 4 -10 4 -5 0 -10
-5 -10 -11z"/>
<path d="M670 2346 c0 -4 7 -14 15 -22 8 -9 15 -11 15 -6 0 5 -7 15 -15 22 -8
7 -15 9 -15 6z"/>
<path d="M689 2298 c-5 -18 -6 -38 -1 -34 7 8 12 36 6 36 -2 0 -4 -1 -5 -2z"/>
<path d="M675 2149 c-4 -6 -5 -12 -2 -15 2 -3 7 2 10 11 7 17 1 20 -8 4z"/>
<path d="M680 1670 c-9 -6 -10 -10 -3 -10 6 0 15 5 18 10 8 12 4 12 -15 0z"/>
<path d="M4580 1570 c-9 -6 -10 -10 -3 -10 6 0 15 5 18 10 8 12 4 12 -15 0z"/>
<path d="M1655 1380 c-4 -6 1 -7 11 -3 10 4 15 2 11 -4 -3 -5 0 -10 8 -10 11
0 12 4 4 14 -14 15 -26 17 -34 3z"/>
<path d="M4180 1305 c-10 -12 -8 -13 10 -10 29 6 34 11 16 18 -8 3 -20 0 -26
-8z"/>
<path d="M1155 1260 c3 -5 8 -10 11 -10 2 0 4 5 4 10 0 6 -5 10 -11 10 -5 0
-7 -4 -4 -10z"/>
<path d="M1522 1258 c-7 -7 -12 -16 -12 -21 0 -5 7 -1 16 8 9 9 14 18 12 20
-2 3 -10 -1 -16 -7z"/>
<path d="M1710 1259 c0 -5 5 -7 10 -4 6 3 10 8 10 11 0 2 -4 4 -10 4 -5 0 -10
-5 -10 -11z"/>
<path d="M1235 1231 c-3 -5 0 -13 6 -17 7 -4 9 -3 5 4 -3 5 0 13 6 15 9 4 10
6 1 6 -6 1 -14 -3 -18 -8z"/>
<path d="M1486 1227 c3 -10 9 -15 12 -12 3 3 0 11 -7 18 -10 9 -11 8 -5 -6z"/>
<path d="M1759 1198 c-6 -21 -5 -37 2 -32 5 3 9 -2 9 -10 0 -9 5 -16 10 -16 7
0 6 8 -2 23 -7 12 -11 25 -10 30 2 6 -7 11 -9 5z"/>
<path d="M3760 1100 c-9 -6 -10 -10 -3 -10 6 0 15 5 18 10 8 12 4 12 -15 0z"/>
<path d="M1893 973 c0 -11 7 -20 14 -20 10 0 10 4 1 16 -7 9 -13 18 -15 20 -1
2 -1 -5 0 -16z"/>
<path d="M3038 723 c7 -3 16 -2 19 1 4 3 -2 6 -13 5 -11 0 -14 -3 -6 -6z"/>
<path d="M2725 590 c-3 -5 -1 -10 4 -10 6 0 11 5 11 10 0 6 -2 10 -4 10 -3 0
-8 -4 -11 -10z"/>
<path d="M2566 575 c-3 -10 0 -12 11 -8 10 4 14 2 10 -4 -3 -5 0 -10 8 -10 20
0 19 10 -4 24 -15 10 -20 9 -25 -2z"/>
</g>
</svg>
