<svg width="30" height="30" viewBox="0 0 30 30" fill="none" xmlns="http://www.w3.org/2000/svg">
    <path d="M0 0H30V30H0V0Z" fill="#FFC837"/>
    <path d="M9.97388 8.96638C12.1381 7.36021 15.2007 7.80939 16.8205 9.97364L20.904 15.4727C21.1218 15.7586 21.0537 16.1669 20.7679 16.3847C20.482 16.6025 20.0737 16.5344 19.8559 16.2486L15.7724 10.7495C14.5882 9.15694 12.3423 8.83026 10.7498 10.0145C9.15719 11.1987 8.83051 13.4446 10.0147 15.0236L14.2888 20.7813C15.0374 21.7885 16.4666 22.0063 17.4875 21.2441C18.4948 20.4954 18.7125 19.0662 17.9639 18.0453L14.0574 12.8321C13.7307 12.3965 13.1182 12.3148 12.6826 12.6279C12.247 12.941 12.1654 13.5671 12.492 13.9891L16.1944 18.9573C16.4122 19.2431 16.3441 19.6515 16.0583 19.8693C15.7724 20.0871 15.3641 20.019 15.1463 19.7332L11.4439 14.7785C10.6953 13.7713 10.8995 12.3421 11.9203 11.5798C12.9412 10.8176 14.3568 11.0354 15.1191 12.0426L19.012 17.2695C20.1962 18.862 19.8559 21.1079 18.277 22.2922C16.6844 23.4764 14.4385 23.1361 13.2543 21.5571L8.96662 15.813C7.36045 13.6488 7.80964 10.5725 9.97388 8.96638Z"
          fill="white"/>
</svg>
