<svg width="20" height="20" viewBox="0 0 20 20" fill="none" xmlns="http://www.w3.org/2000/svg">
<rect x="0.5" y="0.5" width="19" height="19" rx="2.5" fill="#FFC837" stroke="#FFC837"/>
<path d="M15.5875 3.68425C15.4906 3.7155 15.3531 3.78112 15.2875 3.83112C15.2219 3.88112 13.3281 5.69987 11.0813 7.87487C8.8375 10.0499 6.97188 11.8311 6.9375 11.8374C6.89375 11.8436 6.58437 11.5655 5.80625 10.8092C4.55938 9.59987 4.52813 9.578 4.0625 9.578C3.63437 9.578 3.51562 9.64987 2.79063 10.3561C2.07188 11.0561 2.01875 11.1374 2.01562 11.5624C2.01562 11.803 2.025 11.8499 2.11563 12.0342C2.20938 12.2249 2.37188 12.3905 4.23125 14.1905C6.5375 16.4249 6.45625 16.3592 6.93438 16.3592C7.45 16.3592 6.96563 16.7905 12.6406 11.2967C15.4094 8.6155 17.7125 6.37487 17.7625 6.3155C18.05 5.95925 18.0719 5.44987 17.8156 5.06237C17.7656 4.98425 17.4594 4.66862 17.1375 4.36237C16.475 3.728 16.3656 3.65925 15.9906 3.63737C15.825 3.628 15.7188 3.6405 15.5875 3.68425Z" fill="white"/>
</svg>
