<svg width="61" height="36" viewBox="0 0 61 36" fill="none" xmlns="http://www.w3.org/2000/svg">
<path d="M59.1442 0.0419922H51.8851C50.8984 0.0419922 50.1 0.840379 50.1 1.82703V3.61207H35.4909C34.7516 1.5388 32.7887 0.0419922 30.4646 0.0419922C28.1405 0.0419922 26.1777 1.5388 25.4383 3.61207H10.8292V1.82703C10.8292 0.840379 10.0308 0.0419922 9.04419 0.0419922H1.78504C0.798387 0.0419922 0 0.840379 0 1.82703V8.96717C0 9.95382 0.798387 10.7522 1.78504 10.7522H9.04419C10.0308 10.7522 10.8292 9.95382 10.8292 8.96717V7.15834H18.1602C11.9653 11.0284 7.88058 17.8257 7.39231 25.4389C5.25051 26.1399 3.68908 28.1337 3.68908 30.5066C3.68908 33.4595 6.09126 35.8617 9.04419 35.8617C11.9971 35.8617 14.3993 33.4595 14.3993 30.5066C14.3993 28.2289 12.964 26.2924 10.9554 25.5196C11.5644 17.0317 17.4869 9.87778 25.7251 7.83665C26.6161 9.55945 28.3948 10.7522 30.4646 10.7522C32.5344 10.7522 34.3132 9.55945 35.2041 7.83665C43.4423 9.87766 49.3648 17.0316 49.9739 25.5195C47.9652 26.2924 46.53 28.2289 46.53 30.5066C46.53 33.4595 48.9321 35.8617 51.8851 35.8617C54.838 35.8617 57.2402 33.4595 57.2402 30.5066C57.2402 28.1337 55.6787 26.1399 53.5369 25.4389C53.0487 17.8257 48.9639 11.0522 42.769 7.18214H50.1V8.96717C50.1 9.95382 50.8984 10.7522 51.8851 10.7522H59.1442C60.1309 10.7522 60.9292 9.95382 60.9292 8.96717V1.82703C60.9292 0.840379 60.1309 0.0419922 59.1442 0.0419922Z" fill="#273037"/>
</svg>
