<svg width="19" height="19" viewBox="0 0 19 19" fill="none" xmlns="http://www.w3.org/2000/svg">
<path d="M18.3862 0.358154H0.614006C0.275484 0.358154 0 0.633638 0 0.97216V3.70121C0 4.03973 0.275484 4.31522 0.614006 4.31522H18.386C18.7243 4.31522 19 4.03973 19 3.70121V0.97216C19.0002 0.633638 18.7247 0.358154 18.3862 0.358154Z" fill="#FFC837"/>
<path d="M18.3862 7.52148H0.614006C0.275484 7.52148 0 7.79697 0 8.13549V10.8645C0 11.2031 0.275484 11.4785 0.614006 11.4785H18.386C18.7243 11.4785 19 11.2031 19 10.8645V8.13549C19.0002 7.79697 18.7247 7.52148 18.3862 7.52148Z" fill="#FFC837"/>
<path d="M18.3862 14.6851H0.614006C0.275484 14.6851 0 14.9605 0 15.2991V18.0281C0 18.3666 0.275484 18.6421 0.614006 18.6421H18.386C18.7243 18.6421 19 18.3666 19 18.0281V15.2991C19.0002 14.9603 18.7247 14.6851 18.3862 14.6851Z" fill="#FFC837"/>
</svg>
