<svg width="17" height="25" viewBox="0 0 17 25" fill="none" xmlns="http://www.w3.org/2000/svg">
<path d="M8.23047 0C3.69227 0 0 3.73843 0 8.33335C0 9.71274 0.340615 11.0804 0.988136 12.2935L7.78038 24.7314C7.87081 24.8973 8.04311 25 8.23047 25C8.41782 25 8.59013 24.8973 8.68056 24.7314L15.4753 12.2894C16.1203 11.0804 16.4609 9.7127 16.4609 8.3333C16.4609 3.73843 12.7687 0 8.23047 0ZM8.23047 12.5C5.96137 12.5 4.11526 10.6308 4.11526 8.33335C4.11526 6.03589 5.96137 4.1667 8.23047 4.1667C10.4996 4.1667 12.3457 6.03589 12.3457 8.33335C12.3457 10.6308 10.4996 12.5 8.23047 12.5Z" fill="#FFC837"/>
</svg>
