<svg width="25" height="18" viewBox="0 0 25 18" fill="none" xmlns="http://www.w3.org/2000/svg">
<path d="M2.29796 17.5926H22.702C23.9691 17.5926 25 16.6358 25 15.4598V2.13269C25 0.956667 23.9691 0 22.702 0H2.29796C1.03085 0 0 0.956759 0 2.13269V15.4598C0 16.6358 1.03085 17.5926 2.29796 17.5926ZM1.49659 2.13269C1.49659 1.72194 1.85587 1.38889 2.29796 1.38889H22.702C23.1443 1.38889 23.5034 1.72194 23.5034 2.13269V15.4598C23.5034 15.8706 23.1442 16.2037 22.702 16.2037H2.29796C1.85577 16.2037 1.49659 15.8706 1.49659 15.4598V2.13269ZM4.46362 15.2215H2.96704V2.43L12.3131 8.06102C12.4231 8.12722 12.5768 8.12732 12.6871 8.06083L22.0331 2.43V15.2215H20.5365V4.98759L13.5018 9.22593C13.2033 9.40565 12.8569 9.50056 12.5 9.50056C12.1431 9.50056 11.7967 9.40565 11.4984 9.22602L4.46362 4.98759V15.2215Z" fill="#FFC837"/>
</svg>
