<svg width="25" height="25" viewBox="0 0 25 25" fill="none" xmlns="http://www.w3.org/2000/svg">
    <path d="M16.5718 12.6281L24.9999 17.9562V7.07495L16.5718 12.6281Z" fill="#FFC837"/>
    <path d="M0 7.07495V17.9562L8.42813 12.6281L0 7.07495Z" fill="#FFC837"/>
    <path d="M23.4375 3.90625H1.5625C0.782813 3.90625 0.164063 4.4875 0.046875 5.23594L12.5 13.4406L24.9531 5.23594C24.8359 4.4875 24.2172 3.90625 23.4375 3.90625Z"
          fill="#FFC837"/>
    <path d="M15.1404 13.5721L12.9295 15.0284C12.7982 15.1143 12.6498 15.1565 12.4998 15.1565C12.3498 15.1565 12.2014 15.1143 12.0701 15.0284L9.85918 13.5706L0.0498047 19.7752C0.170117 20.5174 0.785742 21.094 1.5623 21.094H23.4373C24.2139 21.094 24.8295 20.5174 24.9498 19.7752L15.1404 13.5721Z"
          fill="#FFC837"/>
</svg>
