<svg width="25" height="27" viewBox="0 0 25 27" fill="none" xmlns="http://www.w3.org/2000/svg">
<path d="M24.6309 2.28438C24.1392 1.72344 23.3422 1.72363 22.8509 2.28457L11.555 15.1722L6.35146 9.23617C5.85972 8.67543 5.0627 8.67523 4.57146 9.23598C4.07972 9.79673 4.07972 10.7059 4.57129 11.2665L10.665 18.2181C10.9011 18.4874 11.2212 18.6387 11.5552 18.6387C11.889 18.6387 12.2092 18.4874 12.4453 18.2181L24.6312 4.31486C25.1225 3.7543 25.1225 2.84512 24.6309 2.28438Z" fill="black"/>
<path d="M21.9135 11.4866C21.2183 11.4866 20.6547 12.1293 20.6547 12.9224V23.561H2.51744V2.87165H16.8786C17.5739 2.87165 18.1373 2.22898 18.1373 1.43583C18.1373 0.642868 17.5739 0 16.8786 0H1.25872C0.56357 0 0 0.642676 0 1.43583V24.9968C0 25.7899 0.56357 26.4326 1.25872 26.4326H21.9135C22.6088 26.4326 23.1722 25.7899 23.1722 24.9968V12.9224C23.1722 12.1295 22.6088 11.4866 21.9135 11.4866Z" fill="black"/>
</svg>
