<svg width="61" height="49" viewBox="0 0 61 49" fill="none" xmlns="http://www.w3.org/2000/svg">
<path d="M56.4709 7.16755H40.3478L37.092 1.69176C36.7735 1.15638 36.1973 0.828369 35.5749 0.828369H25.3352C24.7128 0.828369 24.1364 1.15638 23.8181 1.69176L20.5624 7.16755H15.2716V5.96067C15.2716 4.98457 14.4812 4.19322 13.5062 4.19322H6.97391C5.99873 4.19322 5.20848 4.98457 5.20848 5.96067V7.16755H4.43944C1.98742 7.16755 0 9.15745 0 11.6119V43.7912C0 46.2458 1.98742 48.2357 4.43924 48.2357H56.4709C58.9227 48.2357 60.9103 46.2458 60.9103 43.7912V11.6119C60.9105 9.15745 58.9227 7.16755 56.4709 7.16755ZM30.4551 40.3523C23.4762 40.3523 17.8188 34.6884 17.8188 27.7013C17.8188 20.7147 23.4762 15.0505 30.4551 15.0505C37.4339 15.0505 43.0913 20.7147 43.0913 27.7013C43.0913 34.6884 37.4339 40.3523 30.4551 40.3523ZM53.7011 16.3304H48.1692C47.1942 16.3304 46.4038 15.5391 46.4038 14.5628C46.4038 13.5865 47.1942 12.7951 48.1692 12.7951H53.7011C54.6765 12.7951 55.4668 13.5865 55.4668 14.5628C55.4668 15.5391 54.6763 16.3304 53.7011 16.3304Z" fill="#273037"/>
</svg>
