<svg width="67" height="67" viewBox="0 0 67 67" fill="none" xmlns="http://www.w3.org/2000/svg">
<path d="M44.5505 32.1859L30.6381 22.0727C30.1275 21.7026 29.4498 21.6469 28.8901 21.9345C28.3261 22.2198 27.9738 22.7995 27.9738 23.426V43.6458C27.9738 44.2789 28.3261 44.8564 28.8901 45.1418C29.1287 45.2622 29.3896 45.3224 29.6526 45.3224C29.996 45.3224 30.3438 45.2131 30.6381 44.9969L44.5505 34.8926C44.9897 34.5693 45.2461 34.0699 45.2461 33.5392C45.2483 32.9997 44.9852 32.5025 44.5505 32.1859Z" fill="white"/>
<path d="M33.5011 0C14.9959 0 0 14.9959 0 33.5011C0 51.9996 14.9959 66.9911 33.5011 66.9911C52.0019 66.9911 67 51.9974 67 33.5011C67.0022 14.9959 52.0019 0 33.5011 0ZM33.5011 61.4016C18.0905 61.4016 5.59615 48.9139 5.59615 33.5011C5.59615 18.095 18.0905 5.59169 33.5011 5.59169C48.9095 5.59169 61.4016 18.0927 61.4016 33.5011C61.4038 48.9139 48.9095 61.4016 33.5011 61.4016Z" fill="white"/>
</svg>
