<svg width="56" height="56" viewBox="0 0 56 56" fill="none" xmlns="http://www.w3.org/2000/svg">
<path d="M19.0345 47.1538V42.3897C19.0345 42.0286 19.2382 41.6989 19.5608 41.5369L21.6651 40.4841L19.5608 39.4312C19.2382 39.2692 19.0345 38.9395 19.0345 38.5784V35.72C19.0345 35.195 18.6072 34.7672 18.0828 34.7672H0.951727C0.427325 34.7672 0 35.195 0 35.72V47.1538C0 47.6788 0.427325 48.1066 0.951727 48.1066H18.0828C18.6072 48.1066 19.0345 47.6788 19.0345 47.1538ZM17.1311 46.201H1.90345V44.2953H17.1311V46.201ZM3.80691 42.3897V40.4841H15.2276V42.3897H3.80691ZM17.1311 38.5784H1.90345V36.6728H17.1311V38.5784Z" fill="#273037"/>
<path d="M17.1311 11.0237L9.16037 17.4075C8.98621 17.5476 8.77588 17.6172 8.56554 17.6172C8.35521 17.6172 8.14488 17.5476 7.97071 17.4085L0 11.0237V21.4284H17.1311V11.0237Z" fill="#273037"/>
<path d="M15.3705 9.99438H1.7627L8.56659 15.4436L15.3705 9.99438Z" fill="#273037"/>
<path d="M37.1185 0.466553H18.0839C15.7864 0.466553 13.8639 2.10635 13.4214 4.27783H41.781C41.3384 2.10635 39.4159 0.466553 37.1185 0.466553Z" fill="#273037"/>
<path d="M20.938 47.1541C20.938 48.7301 19.657 50.0126 18.0829 50.0126H13.3242V50.9654C13.3242 53.5923 15.4589 55.7295 18.0829 55.7295H37.1174C39.7413 55.7295 41.876 53.5923 41.876 50.9654V46.2013H20.938V47.1541ZM27.6001 48.107C29.1743 48.107 30.4553 49.3895 30.4553 50.9654C30.4553 52.5414 29.1743 53.8239 27.6001 53.8239C26.026 53.8239 24.7449 52.5414 24.7449 50.9654C24.7449 49.3895 26.026 48.107 27.6001 48.107Z" fill="#273037"/>
<path d="M27.6005 51.9179C28.1262 51.9179 28.5525 51.4917 28.5525 50.9659C28.5525 50.4401 28.1262 50.0139 27.6005 50.0139C27.0747 50.0139 26.6484 50.4401 26.6484 50.9659C26.6484 51.4917 27.0747 51.9179 27.6005 51.9179Z" fill="#273037"/>
<path d="M47.5866 28.0977C49.1635 28.0977 50.4418 26.8179 50.4418 25.2392C50.4418 23.6605 49.1635 22.3808 47.5866 22.3808C46.0098 22.3808 44.7314 23.6605 44.7314 25.2392C44.7314 26.8179 46.0098 28.0977 47.5866 28.0977Z" fill="#273037"/>
<path d="M52.3451 16.6637H42.8278C41.2537 16.6637 39.9727 17.9462 39.9727 19.5222V29.0503C39.9727 30.6263 41.2537 31.9088 42.8278 31.9088H52.3451C53.9193 31.9088 55.2003 30.6263 55.2003 29.0503V19.5222C55.2003 17.9462 53.9193 16.6637 52.3451 16.6637ZM47.5865 30.0032C44.9626 30.0032 42.8278 27.866 42.8278 25.2391C42.8278 22.6121 44.9626 20.475 47.5865 20.475C50.2104 20.475 52.3451 22.6121 52.3451 25.2391C52.3451 27.866 50.2104 30.0032 47.5865 30.0032ZM53.2968 20.475H51.3934V18.5693H53.2968V20.475Z" fill="#273037"/>
<path d="M38.0691 29.0512V19.523C38.0691 17.2229 39.707 15.2982 41.876 14.8551V6.18353H13.3242V8.08917H18.0829C18.6082 8.08917 19.0346 8.51603 19.0346 9.04199V22.3815C19.0346 22.9074 18.6082 23.3343 18.0829 23.3343H13.3242V32.8625H18.0829C19.657 32.8625 20.938 34.145 20.938 35.7209V37.9905L24.2186 39.6332C24.5413 39.7942 24.7449 40.1239 24.7449 40.485C24.7449 40.8461 24.5413 41.1758 24.2186 41.3378L20.938 42.9795V44.2963H41.876V33.7191C39.707 33.276 38.0691 31.3513 38.0691 29.0512Z" fill="#273037"/>
</svg>
