<svg width="61" height="50" viewBox="0 0 61 50" fill="none" xmlns="http://www.w3.org/2000/svg">
<path d="M34.0721 43.5919L31.7879 37.5703H12.3189L10.0299 43.7229C9.13486 46.121 8.37403 47.7378 7.74246 48.5798C7.11253 49.4201 6.07682 49.8395 4.64024 49.8395C3.41964 49.8395 2.34303 49.3955 1.40385 48.5012C0.467951 47.6068 0 46.5928 0 45.4576C0 44.8073 0.106352 44.1275 0.323966 43.4346C0.543216 42.7351 0.903178 41.7621 1.40385 40.5238L13.6557 9.38404C14.0042 8.48965 14.423 7.41508 14.9123 6.16032C15.4064 4.90556 15.9283 3.86702 16.4814 3.03816C17.0393 2.20929 17.7658 1.53932 18.6755 1.02497C19.577 0.513891 20.6896 0.256714 22.0215 0.256714C23.373 0.256714 24.5036 0.512253 25.4002 1.02497C26.31 1.53768 27.0332 2.19783 27.5927 3.00539C28.1474 3.81133 28.6154 4.67786 28.995 5.60501C29.3746 6.53216 29.8605 7.7689 30.4495 9.32015L42.9648 40.2633C43.9449 42.6188 44.4324 44.3273 44.4324 45.3986C44.4324 46.5142 43.971 47.5347 43.0417 48.4569C42.1156 49.3824 40.9997 49.8509 39.6891 49.8509C38.9283 49.8509 38.2771 49.7133 37.7339 49.4414C37.1874 49.1695 36.7309 48.7944 36.3595 48.3275C35.9848 47.859 35.5888 47.1366 35.1667 46.1718C34.7429 45.1873 34.378 44.3306 34.0721 43.5919ZM14.8632 30.2793H29.1733L21.9512 10.4881L14.8632 30.2793ZM59.775 42.4976L50.1918 19.0339C49.7452 17.8594 49.3705 16.9224 49.0759 16.2181C48.7847 15.5153 48.428 14.8601 48.0059 14.2475C47.5805 13.6365 47.0242 13.1369 46.337 12.7519C45.653 12.3653 44.7973 12.172 43.7714 12.1753C42.7586 12.1802 41.9143 12.3768 41.2304 12.7667C40.5399 13.1582 39.9902 13.6709 39.5697 14.3015C39.1475 14.9338 38.7565 15.725 38.3834 16.6784C38.1445 17.291 37.94 17.8234 37.7453 18.3246L41.2468 26.9884L43.7403 19.9529L49.2756 34.9576L44.475 34.9789L46.6135 40.2584C46.6478 40.3485 46.674 40.4222 46.7117 40.5106L51.2815 40.491L53.0306 45.0563C53.2695 45.6198 53.5444 46.2668 53.8733 47.0023C54.1956 47.7378 54.5048 48.2849 54.7895 48.6404C55.071 48.9958 55.4195 49.276 55.8351 49.4824C56.2474 49.6871 56.7464 49.7903 57.324 49.7903C58.3123 49.787 59.1614 49.4283 59.8617 48.7272C60.5686 48.0179 60.9138 47.2464 60.9105 46.4011C60.9023 45.5821 60.526 44.2848 59.775 42.4976Z" fill="#273037"/>
</svg>
