<svg width="61" height="62" viewBox="0 0 61 62" fill="none" xmlns="http://www.w3.org/2000/svg">
    <g clip-path="url(#clip0_1:95)">
        <path d="M30.4553 0.562866C13.6541 0.562866 0 14.2326 0 31.0531C0 47.8735 13.6541 61.5433 30.4553 61.5433C32.3587 61.5433 34.2114 61.3654 36.0387 61.0351L33.9576 54.7846C33.6531 55.0895 33.3231 55.3436 32.9932 55.5723V51.8626L28.2726 37.7101C28.0188 36.9733 27.9173 36.211 27.9173 35.4742V40.6321C25.5063 40.7337 23.146 40.937 20.9126 41.3181C20.4558 38.9297 20.1512 36.338 20.0243 33.5431H27.9173V35.4742C27.9173 33.6702 28.628 31.917 29.9731 30.5703C31.2674 29.2491 33.0186 28.5122 34.8967 28.5122C35.658 28.5122 36.394 28.6393 37.13 28.8679L51.1141 33.5431H55.7078C55.657 34.0513 55.6062 34.534 55.5047 35.0168L60.4029 36.6429C60.7329 34.8135 60.9105 32.9587 60.9105 31.0531C60.9105 14.2326 47.2564 0.562866 30.4553 0.562866V0.562866ZM27.9173 45.7138V55.5723C25.7347 54.0986 23.6536 50.8463 22.1816 46.2474C24.0343 45.9679 25.9377 45.79 27.9173 45.7138V45.7138ZM9.13658 17.3071C11.1669 18.2726 13.4511 19.0857 15.9383 19.7463C15.4053 22.465 15.0754 25.387 14.9485 28.4614H5.20277C5.60884 24.396 7.03009 20.6102 9.13658 17.3071V17.3071ZM5.20277 33.5431H14.9485C15.0754 36.6684 15.4053 39.6157 15.9383 42.3599C13.4511 43.0205 11.1669 43.8336 9.13658 44.7991C7.00471 41.496 5.60884 37.6593 5.20277 33.5431V33.5431ZM20.1512 54.251C17.2326 52.9552 14.6185 51.1258 12.4105 48.8899C13.8571 48.2546 15.456 47.7211 17.1565 47.2891C17.9686 49.9062 18.9838 52.2692 20.1512 54.251ZM17.1565 14.817C15.456 14.3851 13.8571 13.8515 12.4105 13.2163C14.6185 10.9804 17.2326 9.15094 20.1512 7.85511C18.9838 9.83697 17.9686 12.2 17.1565 14.817ZM27.9173 28.4614H20.0243C20.1512 25.7173 20.4558 23.151 20.9126 20.788C23.146 21.1692 25.5063 21.3724 27.9173 21.4741V28.4614ZM27.9173 16.3924C25.9377 16.3161 24.0343 16.1383 22.1816 15.8588C23.6536 11.2598 25.7347 8.00756 27.9173 6.53387V16.3924ZM32.9932 6.53387C35.1758 8.00756 37.2569 11.2598 38.7289 15.8588C36.8763 16.1383 34.9728 16.3161 32.9932 16.3924V6.53387ZM32.9932 28.4614V21.4741C35.4042 21.3724 37.7645 21.1692 39.9979 20.788C40.4547 23.151 40.7593 25.7173 40.8862 28.4614H32.9932ZM40.7593 7.85511C43.6779 9.15094 46.292 10.9804 48.5 13.2163C47.0534 13.8515 45.4545 14.3851 43.7541 14.817C42.9419 12.2 41.9267 9.83697 40.7593 7.85511V7.85511ZM45.9621 28.4614C45.8352 25.387 45.5052 22.465 44.9723 19.7463C47.4595 19.0857 49.7436 18.2726 51.774 17.3071C53.8804 20.6102 55.3017 24.396 55.7078 28.4614H45.9621Z"
              fill="#273037"/>
        <path d="M42.9348 61.5432C42.9221 61.5432 42.9069 61.5432 42.8917 61.5432C42.0897 61.5255 41.3841 61.0046 41.1303 60.2398L33.0927 36.1017C32.8643 35.4157 33.0419 34.661 33.5521 34.1503C34.0622 33.6371 34.816 33.4592 35.5012 33.6904L59.6116 41.7373C60.373 41.9914 60.8933 42.6978 60.9136 43.5007C60.9314 44.3036 60.4441 45.0353 59.6928 45.3225L48.8736 49.4895L44.7114 60.3211C44.4271 61.0605 43.719 61.5432 42.9348 61.5432V61.5432Z"
              fill="#273037"/>
    </g>
    <defs>
        <clipPath id="clip0_1:95">
            <rect width="60.9105" height="60.9804" fill="white" transform="translate(0 0.562866)"/>
        </clipPath>
    </defs>
</svg>
